<?xml version="1.0" encoding="UTF-8"?><svg id="a" xmlns="http://www.w3.org/2000/svg" viewBox="0 0 1291 1209"><defs><style>.b{fill:#b5bcc6;}.c{opacity:.15;}</style></defs><g class="c"><path class="b" d="M176.49,279.36l446.53-132.07c.39-.12,.75-.24,1.14-.38,4.24-1.56,34.03-11.66,65.65,.19,31.6,11.85,379.37,116.91,431.12,132.52,5.2,1.57,9.43,5.38,11.38,10.45,2.94,7.66,2.49,17.91-19.9,19.23-36.28,2.13-887.88,0-915.63,0-22.2,0-34.83-5.46-32.44-17.48,1.21-6.08,6.21-10.71,12.16-12.47Z"/><rect class="b" x="187.17" y="332.8" width="922.03" height="43.75" rx="7.47" ry="7.47"/><path class="b" d="M162.79,945.35v28.81c0,4.13,3.52,7.47,7.87,7.47h955.06c4.34,0,7.87-3.34,7.87-7.47v-28.81c0-4.13-3.52-7.47-7.87-7.47H170.65c-4.34,0-7.87,3.34-7.87,7.47Z"/><path class="b" d="M147.68,979.48v17.44c0,2.5,3.63,4.52,8.11,4.52h984.78c4.48,0,8.11-2.02,8.11-4.52v-17.44c0-2.5-3.63-4.52-8.11-4.52H155.79c-4.48,0-8.11,2.02-8.11,4.52Z"/><path class="b" d="M1098.5,428.82H192.48c-23.44,0-16.46-29.84-16.46-29.84l1.28-4.29h936.44l1.22,4.29s7.04,29.84-16.45,29.84Z"/><path class="b" d="M1142.87,1059H148.12c-25.73,0-18.07-36.39-18.07-36.39l1.41-5.23H1159.6l1.34,5.23s7.73,36.39-18.07,36.39Z"/><path class="b" d="M254.4,903.73h-55.51c-12.81,0-11.72-13.89-11.72-13.89l23.5-445.01c0-8.32,16.01-7.43,16.01-7.43,0,0,16.01-.9,16.01,7.43l23.44,445.01s1.09,13.89-11.72,13.89Z"/><path class="b" d="M375.14,903.73h-55.51c-12.81,0-11.72-13.89-11.72-13.89l23.5-445.01c0-8.32,16.01-7.43,16.01-7.43,0,0,16.01-.9,16.01,7.43l23.44,445.01s1.09,13.89-11.72,13.89Z"/><path class="b" d="M495.88,903.73h-55.51c-12.81,0-11.72-13.89-11.72-13.89l23.5-445.01c0-8.32,16.01-7.43,16.01-7.43,0,0,16.01-.9,16.01,7.43l23.44,445.01s1.09,13.89-11.72,13.89Z"/><path class="b" d="M616.62,903.73h-55.51c-12.81,0-11.72-13.89-11.72-13.89l23.5-445.01c0-8.32,16.01-7.43,16.01-7.43,0,0,16.01-.9,16.01,7.43l23.44,445.01s1.09,13.89-11.72,13.89Z"/><path class="b" d="M737.37,903.73h-55.51c-12.81,0-11.72-13.89-11.72-13.89l23.5-445.01c0-8.32,16.01-7.43,16.01-7.43,0,0,16.01-.9,16.01,7.43l23.44,445.01s1.09,13.89-11.72,13.89Z"/><path class="b" d="M858.11,903.73h-55.51c-12.81,0-11.72-13.89-11.72-13.89l23.5-445.01c0-8.32,16.01-7.43,16.01-7.43,0,0,16.01-.9,16.01,7.43l23.44,445.01s1.09,13.89-11.72,13.89Z"/><path class="b" d="M978.85,903.73h-55.51c-12.81,0-11.72-13.89-11.72-13.89l23.5-445.01c0-8.32,16.01-7.43,16.01-7.43,0,0,16.01-.9,16.01,7.43l23.44,445.01s1.09,13.89-11.72,13.89Z"/><path class="b" d="M1099.59,903.73h-55.51c-12.81,0-11.72-13.89-11.72-13.89l23.5-445.01c0-8.32,16.01-7.43,16.01-7.43,0,0,16.01-.9,16.01,7.43l23.44,445.01s1.09,13.89-11.72,13.89Z"/></g></svg>