<?xml version="1.0" encoding="UTF-8"?><svg id="a" xmlns="http://www.w3.org/2000/svg" viewBox="0 0 91 92"><defs><style>.b{fill:#f9f8f7;}.c{fill:navy;}</style></defs><g><rect class="c" x="12.52" y="12.97" width="65.77" height="65.77"/><path class="c" d="M78.84,79.29H11.97V12.41H78.84V79.29Zm-65.77-1.1H77.74V13.52H13.07V78.19Z"/></g><path class="c" d="M91,92H-.45V0H91V92ZM4.53,86.98H86.01V5.01H4.53V86.98Z"/><g><path class="b" d="M34,69.47c-.34-.22-.49-.52-.51-.94-.17-3.38-.36-6.76-.53-10.14-.05-1-.18-2.01,.04-3.01,.41-1.85,1.48-3.2,3.09-4.15,.29-.17,.38-.35,.37-.67-.02-.77,0-1.54,0-2.32,0-1.42,.91-2.32,2.34-2.32,1.26,0,2.52,0,3.78,0,.15,0,.31,.04,.5-.07-.46-.51-.85-1.06-1.11-1.68-.14-.32-.18-.43,.28-.56,.81-.22,1.14,.04,1.56,.72,.96,1.53,3.01,2,4.64,1.21,1.62-.79,2.45-2.64,1.96-4.37-.5-1.77-2.21-2.93-4.04-2.68-.36,.05-.49-.04-.53-.36-.01-.09-.05-.18-.07-.27q-.25-.81,.63-.9c2.1-.2,4.17,.93,5.16,2.83,.99,1.9,.73,4.13-.67,5.78-.08,.09-.2,.15-.2,.31,.14,.09,.3,.04,.45,.04,1.28,0,2.55,0,3.83,0,1.39,0,2.29,.92,2.3,2.32,0,.8,.01,1.61,0,2.41,0,.25,.07,.39,.29,.52,2.39,1.43,3.46,3.53,3.28,6.32-.22,3.28-.36,6.57-.54,9.86-.02,.38-.06,.75-.06,1.13,0,.43-.14,.76-.51,.99h-25.72Zm12.83-1.89c3.52,.02,6.43-2.85,6.46-6.35,.02-3.56-2.83-6.49-6.35-6.5-3.59-.02-6.49,2.84-6.5,6.4-.01,3.54,2.85,6.44,6.4,6.46Zm.03-16.81c.61,0,1.23,0,1.84,0,2.22,0,4.44,0,6.66,0,.26,0,.4-.03,.39-.35,0-.31-.09-.42-.4-.4-.41,.02-.82,.01-1.23,0-.51-.01-.82-.29-.84-.71-.02-.44,.31-.75,.82-.77,.44-.02,.88-.02,1.32,0,.26,0,.32-.1,.31-.34,0-.54-.26-.78-.89-.78-5.34,0-10.68,0-16.02,0-.06,0-.13,0-.19,0-.43,.02-.64,.26-.69,.69-.04,.33,.07,.45,.41,.43,.42-.03,.85-.02,1.28,0,.47,.02,.77,.32,.77,.73,0,.42-.31,.73-.8,.75-.46,.02-.91,0-1.37,0-.19,0-.28,.04-.3,.26-.02,.33,.03,.5,.44,.49,2.82-.02,5.64-.01,8.46-.01Z"/><path class="b" d="M28.33,27.52c0,1.62,0,3.24,0,4.86,0,.83-.63,1.52-1.47,1.53-1.54,.02-3.08,.02-4.63,0-.83-.01-1.46-.65-1.46-1.49-.01-3.29-.01-6.58,0-9.87,0-.85,.65-1.48,1.51-1.49,1.51-.01,3.02-.01,4.53,0,.9,0,1.51,.66,1.51,1.59,0,1.62,0,3.24,0,4.86Zm-4.54,2.58c-.02,.4,.3,.76,.7,.79,.42,.03,.79-.32,.8-.74,0-.4-.32-.75-.73-.77-.4-.01-.76,.31-.78,.72Z"/><path class="b" d="M48.36,34.04c-.02,.36,.1,.83-.08,1.05-.21,.25-.67-.06-1.02-.02-.38,.04-.48-.13-.42-.46,.16-.91-.18-1.6-.84-2.2-.44-.4-.81-.88-1.19-1.34-.16-.19-.32-.25-.57-.22-.75,.1-1.5,.17-2.26,.22-.27,.02-.35,.12-.37,.36-.07,.71-.14,1.41-.22,2.11-.03,.24,.05,.42,.2,.59,.65,.75,1.3,1.5,1.94,2.26,.82,.97,1.06,2.12,1.05,3.34,0,.53-.29,.93-.72,1.27-1.68,1.34-3.19,1.05-4.39-.54-.88-1.17-1.87-2.25-2.81-3.38-.18-.21-.38-.37-.63-.47-1.87-.8-3.48-1.96-4.8-3.51-.3-.35-.65-.26-.99-.26-.3,0-.4-.09-.4-.4,0-1.12-.01-1.1,1.09-1.13,.54-.01,.91,.16,1.25,.58,1.23,1.52,2.78,2.64,4.59,3.38,.38,.16,.67,.38,.93,.69,1.05,1.27,2.12,2.54,3.19,3.8,.64,.76,1.5,.74,2.12-.04,.12-.16,.09-.34,.06-.5-.15-.81-.36-1.57-.97-2.2-.7-.72-1.32-1.52-1.98-2.28-.23-.27-.32-.55-.28-.91,.12-1.06,.22-2.13,.33-3.19,.06-.62,.36-.93,.99-1,1.14-.13,2.29-.23,3.43-.35,.43-.05,.75,.08,1.04,.42,.62,.73,1.24,1.47,1.92,2.15,.62,.62,1.02,1.28,.83,2.19Z"/><path class="b" d="M52.15,37.56c-.48-.51-.89-.92-1.37-1.25-.19-.13-.14-.3-.14-.47,0-1.5-.01-2.99,0-4.49,0-.44-.12-.78-.41-1.11-1.65-1.86-3.28-3.74-4.91-5.62-.32-.38-.68-.54-1.19-.54-4.6,.01-9.2,0-13.8,.02-.42,0-.53-.1-.52-.52,.03-1.01,0-1.01,1-1.01,4.44,0,8.88,0,13.32,0,.93,0,1.67,.32,2.27,1.03,1.66,1.92,3.33,3.83,5,5.73,.49,.56,.73,1.19,.72,1.94-.02,2.06,0,4.12,0,6.3Z"/><path class="b" d="M51.77,61.16c0,2.69-2.21,4.91-4.9,4.91-2.73,0-4.93-2.2-4.93-4.92,0-2.69,2.21-4.91,4.9-4.91,2.73,0,4.93,2.2,4.93,4.93Zm-4.95,3.77c.4-.03,.65-.23,.75-.61,.04-.15,.03-.29,.21-.38,.69-.38,1.03-.97,.94-1.76-.09-.81-.62-1.27-1.36-1.53-.24-.08-.47-.17-.7-.28-.15-.08-.22-.23-.16-.4,.06-.19,.23-.2,.39-.19,.09,0,.18,.05,.27,.09,.5,.21,.9,.11,1.1-.27,.2-.39,.07-.78-.4-1.06-.19-.11-.24-.24-.26-.45-.05-.44-.35-.71-.74-.71-.41,0-.7,.27-.75,.74-.02,.17-.04,.29-.21,.38-.69,.39-.99,1.01-.91,1.78,.08,.82,.6,1.32,1.33,1.63,.22,.09,.45,.14,.67,.23,.15,.06,.31,.15,.21,.35-.08,.16-.25,.19-.41,.14-.09-.03-.17-.08-.26-.12-.44-.2-.86-.09-1.06,.28-.2,.36-.09,.76,.31,1.01,.2,.13,.31,.25,.34,.5,.04,.39,.33,.58,.71,.63Z"/></g></svg>