<?xml version="1.0" encoding="UTF-8"?><svg id="a" xmlns="http://www.w3.org/2000/svg" viewBox="0 0 92 92"><defs><style>.b{fill:#f9f8f7;}.c{fill:navy;}</style></defs><g><rect class="c" x="13.13" y="12.97" width="65.77" height="65.77"/><path class="c" d="M79.45,79.29H12.58V12.41H79.45V79.29Zm-65.77-1.1H78.35V13.52H13.68V78.19Z"/></g><path class="c" d="M92,92H.15V0H92V92ZM5.16,86.98H86.99V5.01H5.16V86.98Z"/><g><path class="b" d="M36.16,64.37c-5.14,0-10.29,0-15.43,0-.88,0-.96-.08-.96-.94,0-2.21-.07-4.43,.05-6.64,.22-4.1,3.58-7.34,7.69-7.5,1.28-.05,2.57-.02,3.86-.01,.33,0,.52-.07,.46-.44,0-.02,0-.04,0-.05,.13-1.09-.15-1.95-.96-2.81-1.46-1.55-2.22-3.52-2.56-5.62-.07-.4-.19-.58-.6-.52-.14,.02-.29,0-.43,0-1.32,0-1.9-.58-1.9-1.89,0-.32,0-.64,0-.96,0-.7,.34-1.2,.97-1.46,.26-.11,.33-.24,.36-.5,.46-3.92,2.52-6.62,6.19-8.07,.27-.11,.38-.24,.42-.53,.12-.98,.73-1.54,1.71-1.58,.7-.03,1.39-.03,2.09,0,.97,.04,1.54,.56,1.69,1.54,.05,.35,.22,.49,.53,.62,3.62,1.47,5.65,4.16,6.08,8.04,.03,.27,.11,.39,.37,.5,.6,.24,.93,.71,.98,1.36,.03,.46,.04,.93,.01,1.39-.06,.94-.69,1.53-1.64,1.57-.96,.04-.96,.05-1.19,.98-.57,2.31-1.69,4.31-3.43,5.94-.27,.25-.37,.5-.34,.84,.05,.54-.23,1.25,.12,1.59,.33,.31,1.02,.07,1.55,.09,1.32,.05,2.64-.09,3.96,.11,1.18,.18,2.26,.63,3.24,1.32,.23,.16,.4,.21,.66,.05,1.2-.71,2.41-1.39,3.63-2.07,.23-.13,.35-.2,.17-.51-.44-.76-.29-1.39,.46-1.89,.31-.2,.43-.39,.24-.73-.09-.15-.15-.33-.18-.5-.07-.38-.25-.5-.65-.47-.68,.05-1.24-.38-1.47-1.02-.22-.62-.03-1.32,.53-1.72,.7-.5,1.42-.96,2.13-1.43,1.32-.88,2.64-1.77,3.97-2.64,.56-.37,1.15-.39,1.71-.03,.52,.34,.76,.84,.7,1.46-.01,.11-.02,.23-.07,.31-.34,.44-.1,.69,.24,.98,2.03,1.71,3.42,3.86,4.22,6.39,.08,.27,.12,.46,.52,.41,.73-.09,1.35,.35,1.58,1.02,.23,.66,.02,1.35-.61,1.79-.88,.61-1.78,1.19-2.67,1.79-1.08,.72-2.16,1.45-3.25,2.17-.72,.47-1.41,.46-1.97-.02-.57-.48-.69-1.15-.32-1.93,.1-.21,.08-.32-.09-.45-.17-.13-.34-.26-.49-.42-.18-.2-.33-.17-.54-.03-.98,.62-1.36,.58-2.16-.27-.17-.18-.26-.11-.4,0-1.04,.81-2.09,1.62-3.14,2.42-.18,.14-.18,.26-.08,.45,.68,1.34,.87,2.78,.85,4.26-.02,1.8,0,3.61,0,5.41,0,.79-.11,.9-.89,.9-5.18,0-10.36,0-15.54,0Zm-5.9-7.56c0,2,.01,4-.01,6,0,.45,.13,.57,.57,.56,3.52-.02,7.03-.02,10.55,0,.46,0,.55-.13,.55-.57-.02-3.75-.01-7.5-.01-11.25,0-1.29,0-1.27-1.3-1.3-.48-.01-.83,.11-1.18,.46-.92,.92-1.89,1.8-2.84,2.69-.5,.47-.65,.46-1.16-.01-.78-.74-1.61-1.43-2.32-2.22-.65-.72-1.37-1.02-2.34-.93-.44,.04-.52,.17-.51,.56,.02,2,0,4,0,6Zm8.75-28.92c.08,.87,.16,1.64,.23,2.4,.03,.36,.1,.78-.41,.82-.5,.05-.54-.34-.57-.72-.12-1.26-.26-2.52-.4-3.78-.07-.59-.27-.77-.87-.78-.57,0-1.14,0-1.71,0-.7,0-.9,.21-.97,.92-.12,1.24-.25,2.48-.38,3.73-.04,.37-.15,.7-.61,.63-.43-.07-.43-.41-.39-.75,.07-.67,.13-1.35,.21-2.02,.04-.37-.09-.39-.38-.25-2.88,1.34-4.53,3.59-5,6.73-.07,.49,.08,.59,.55,.59,4.91-.02,9.82-.01,14.73-.01,1.58,0,1.61,0,1.21-1.56-.72-2.82-2.46-4.76-5.24-5.94Zm-2.79,11.95c-2.16,0-4.32,0-6.48,0-.29,0-.54-.03-.45,.41,.47,2.32,1.43,4.37,3.18,6,2.11,1.95,4.58,2.06,6.83,.26,1.99-1.58,3.16-3.69,3.76-6.14,.11-.44-.03-.55-.47-.54-2.12,.02-4.25,0-6.38,0Zm23.41,11.39c.09-.06,.19-.11,.27-.16,1.48-.99,2.96-1.99,4.45-2.97,.25-.16,.25-.32,.17-.57-.79-2.64-2.25-4.83-4.39-6.57-.24-.19-.41-.25-.69-.05-1.43,.98-2.87,1.94-4.32,2.88-.29,.19-.3,.37-.21,.66,.8,2.64,2.27,4.83,4.41,6.56,.1,.08,.2,.15,.31,.24Zm-14.18,5.58c0,2.04,0,4.07,0,6.11,0,.35,.1,.47,.45,.45,.53-.03,1.07-.03,1.61,0,.37,.02,.45-.13,.44-.46-.02-.77-.02-1.54,0-2.3,.03-1.45,.99-2.4,2.43-2.44,.29,0,.57-.01,.86,0,.27,.01,.36-.09,.38-.37,.22-3.45-2.27-6.69-5.67-7.38-.44-.09-.5,.06-.5,.45,.02,1.98,0,3.96,0,5.95Zm-18.74,.05c0-1.98-.02-3.96,.01-5.94,0-.51-.15-.54-.57-.43-2.99,.72-5.28,3.55-5.36,6.64q-.03,1.03,.98,1.03c.14,0,.29,0,.43,0,1.29,.09,2.21,1.06,2.24,2.35,0,.36,0,.71,0,1.07,0,.57-.19,1.32,.1,1.65,.33,.38,1.11,.06,1.69,.13,.42,.05,.5-.12,.5-.51-.02-2,0-4,0-5.99Zm12.47-9.04c-2.12,1.26-4.22,1.28-6.37,0,0,.45,.03,.81,0,1.16-.04,.41,.11,.7,.42,.97,.85,.76,1.68,1.55,2.49,2.35,.23,.22,.36,.25,.6,.01,.6-.61,1.19-1.25,1.87-1.75,.9-.66,1.19-1.48,1.03-2.53,0-.04-.01-.07-.04-.2Zm12.44,13.45v-.91q0-1.24-1.23-1.21c-.86,.02-1.41,.55-1.42,1.4-.02,.8,0,1.6,0,2.4,0,.29,.07,.42,.38,.4,.62-.02,1.25-.02,1.87,0,.34,.01,.43-.12,.42-.43-.02-.55,0-1.1,0-1.66Zm-30.83,0c0,.55,.01,1.11,0,1.66-.01,.3,.04,.46,.4,.44,.62-.03,1.25-.02,1.87,0,.29,0,.42-.08,.4-.39-.02-.53-.03-1.07,0-1.6,.1-1.86-.51-2.33-2.3-2.21-.02,0-.04,0-.05,0-.27-.04-.33,.11-.32,.34,.01,.59,0,1.18,0,1.77Zm30.36-8.66c.09-.07,.18-.13,.26-.19,.99-.76,1.97-1.53,2.97-2.29,.22-.17,.29-.28,.12-.55-.19-.29-.34-.2-.56-.08-1.02,.59-2.04,1.16-3.07,1.75-.63,.36-.63,.36-.16,.91,.13,.15,.21,.38,.44,.45Zm3.67-5.6c-.36,0-.56,.39-.4,.67,.21,.35,.45,.68,.67,1.02,.36,.55,.74,1.09,1.09,1.64,.2,.3,.4,.27,.67,.09,.33-.22,.05-.36-.07-.49-.71-.83-1.32-1.72-1.82-2.69-.05-.1-.06-.24-.15-.25Z"/><path class="b" d="M63.95,64.36c-2.43,0-4.86,0-7.28,0-.78,0-.86-.08-.86-.86,0-.39,0-.79,0-1.18,.02-1.04,.61-1.69,1.64-1.73,.35-.01,.48-.11,.44-.45-.02-.18,0-.36,0-.54,.02-1.13,.67-1.79,1.81-1.8,2.46,0,4.93,0,7.39,0,.41,0,.82,0,1.23,0,1.08,.03,1.72,.68,1.75,1.75,0,.12,.02,.25,0,.37-.08,.48,.06,.67,.61,.68,.87,.03,1.45,.71,1.48,1.6,.01,.45,0,.89,0,1.34,0,.71-.1,.81-.8,.81-2.46,0-4.93,0-7.39,0Zm0-3.78c1.39,0,2.78,0,4.17,0q1,0,.94-1.02c-.03-.56-.2-.73-.76-.73-2.89,0-5.77,0-8.66,0-.56,0-.72,.18-.75,.74,0,.16,.01,.32,0,.48-.05,.41,.08,.55,.52,.54,1.51-.03,3.03-.01,4.54-.01Z"/><path class="b" d="M71.07,53.82s0,.12-.03,.17c-.45,.51-.96,.95-1.55,1.27-.19,.1-.39-.03-.5-.21-.13-.2-.13-.43,.05-.59,.43-.38,.86-.76,1.32-1.08,.32-.22,.71,.02,.72,.44Z"/><path class="b" d="M67.29,53.59c.13-.44,.28-1.01,.47-1.56,.09-.25,.33-.32,.58-.24,.26,.08,.39,.28,.34,.53-.12,.54-.27,1.07-.44,1.59-.08,.24-.29,.37-.55,.31-.25-.06-.39-.23-.38-.63Z"/><path class="b" d="M70.65,57.03c-.18,.01-.36,.04-.53,.03-.28-.02-.46-.16-.48-.46-.02-.27,.13-.47,.38-.5,.55-.07,1.1-.11,1.64-.13,.29-.01,.47,.17,.48,.46,.01,.29-.14,.47-.43,.51-.35,.05-.71,.07-1.06,.11h0Z"/></g></svg>