<?xml version="1.0" encoding="UTF-8"?><svg id="a" xmlns="http://www.w3.org/2000/svg" viewBox="0 0 102 104"><defs><style>.b{fill:#01acf1;}</style></defs><path class="b" d="M50.5,78.6v-2.62c0-4.33-3.52-7.85-7.85-7.85h-.98c1.74-3.28,3.59-7.24,3.59-9.16,0-3.62-2.93-6.41-6.55-6.41s-6.55,2.8-6.55,6.41c0,1.93,1.86,5.88,3.59,9.16h-.98c-4.33,0-7.85,3.52-7.85,7.85v2.62c-1.45,0-2.62,1.17-2.62,2.62s1.17,2.62,2.62,2.62h23.56c1.45,0,2.62-1.17,2.62-2.62s-1.17-2.62-2.62-2.62Zm-5.24,0h-13.09v-2.62c0-1.45,1.17-2.62,2.62-2.62h7.85c1.45,0,2.62,1.17,2.62,2.62v2.62Zm20.94-28.8h-10.47c-1.45,0-2.62-1.17-2.62-2.62s1.17-2.62,2.62-2.62h10.47c1.45,0,2.62,1.17,2.62,2.62s-1.17,2.62-2.62,2.62Zm20.94-15.71v36.65c0,7.22-5.87,13.09-13.09,13.09h-13.09c-1.45,0-2.62-1.17-2.62-2.62s1.17-2.62,2.62-2.62h13.09c4.33,0,7.85-3.52,7.85-7.85V34.09c0-4.33-3.52-7.85-7.85-7.85h-20.94c-4.33,0-7.85,3.52-7.85,7.85v10.61c0,1.45-1.17,2.62-2.62,2.62s-2.62-1.17-2.62-2.62v-10.61c0-7.22,5.87-13.09,13.09-13.09h20.94c7.22,0,13.09,5.87,13.09,13.09Zm-28.8,30.11c0,5.05,4.11,9.16,9.16,9.16s9.16-4.11,9.16-9.16-4.11-9.16-9.16-9.16-9.16,4.11-9.16,9.16Zm13.09,0c0,2.17-1.76,3.93-3.93,3.93s-3.93-1.76-3.93-3.93,1.76-3.93,3.93-3.93,3.93,1.76,3.93,3.93Zm2.62-27.49c0,1.45-1.17,2.62-2.62,2.62h-15.71c-1.45,0-2.62-1.17-2.62-2.62s1.17-2.62,2.62-2.62h15.71c1.45,0,2.62,1.17,2.62,2.62Z"/></svg>