<?xml version="1.0" encoding="UTF-8"?><svg id="a" xmlns="http://www.w3.org/2000/svg" viewBox="0 0 91 92"><defs><style>.b{fill:#fff;}.c{fill:navy;}</style></defs><g><g><rect class="c" x="12.52" y="12.97" width="65.77" height="65.77"/><path class="c" d="M78.84,79.29H11.97V12.41H78.84V79.29Zm-65.77-1.1H77.74V13.52H13.07V78.19Z"/></g><path class="c" d="M91,92H-.45V0H91V92ZM4.53,86.98H86.01V5.01H4.53V86.98Z"/></g><g><path class="b" d="M24.41,60.29v-12.19h15.6c0,1.3,0,2.54,0,3.79,0,.86,.53,1.41,1.38,1.41,2.54,0,5.09,0,7.63,0,.84,0,1.37-.54,1.38-1.37,0-1.12,0-2.25,0-3.37,0-.14,0-.29,0-.46h15.6v12.19c-.03,.09-.06,.18-.08,.27-.4,1.82-2.02,3.14-3.88,3.14-11.22,0-22.44,0-33.66,0-.99,0-1.85-.35-2.59-.99-.75-.64-1.15-1.48-1.37-2.42Z"/><path class="b" d="M24.41,45.5v-6.99s.05-.1,.06-.15c.49-2.06,2-3.26,4.1-3.26,1.92,0,3.84,0,5.76,0h.47c0-1.27,0-2.5,0-3.73,0-2.31,1.74-4.07,4.05-4.07,4.24,0,8.47,0,12.71,0,2.28,0,4.03,1.75,4.04,4.03,0,1.11,0,2.22,0,3.33v.44c2.17,0,4.28,0,6.4,0,1.34,0,2.44,.54,3.19,1.62,.37,.53,.55,1.19,.81,1.79v6.99H24.41Zm25.98-12.97h-10.35v2.55h10.35v-2.55Z"/></g></svg>