<svg xmlns="http://www.w3.org/2000/svg" viewBox="0 0 102 104">
  <path fill="#01acf1" d="M80.5,40.4H59.7v-4.6c0-3.6-2.9-6.5-6.5-6.5H48.8c-3.6,0-6.5,2.9-6.5,6.5v4.6H21.5c-3,0-5.4,2.4-5.4,5.4v32.8c0,3,2.4,5.4,5.4,5.4h59c3,0,5.4-2.4,5.4-5.4V45.8C85.9,42.8,83.5,40.4,80.5,40.4zM47.7,35.8h6.6v4.6h-6.6V35.8zM80.5,78.6H21.5V60.2h24.8v3.3c0,1.5,1.2,2.7,2.7,2.7h7c1.5,0,2.7-1.2,2.7-2.7v-3.3h21.8V78.6zM80.5,54.8H58.7v-0.6c0-1.5-1.2-2.7-2.7-2.7h-7c-1.5,0-2.7,1.2-2.7,2.7v0.6H21.5v-9H80.5V54.8z"/>
  <rect fill="#01acf1" x="47.2" y="56.8" width="7.6" height="4.2" rx="1"/>
  <path fill="#01acf1" d="M35.8,24.1h-12.6c-1.5,0-2.7,1.2-2.7,2.7v8.2h5.4v-5.5h9.9V24.1z"/>
  <path fill="#01acf1" d="M78.8,24.1H66.2v5.4h9.9v5.5h5.4v-8.2C81.5,25.3,80.3,24.1,78.8,24.1z"/>
  <rect fill="#01acf1" x="37" y="24.1" width="28" height="5.4" rx="1.5"/>
</svg>
