<svg xmlns="http://www.w3.org/2000/svg" viewBox="0 0 102 104">
  <path fill="#01acf1" d="M57.8,18.5h-18.2c-1.4,0-2.6,1-2.8,2.4l-4.8,28.8c-0.3,1.6,0.9,3.1,2.6,3.1h12.1L41,82.2c-0.4,1.8,1.7,3,3,1.7l28.8-34.4c1.1-1.3,0.2-3.3-1.5-3.3H58.9l2.7-24.4C61.8,19.9,60,18.5,57.8,18.5zM49.3,71.6l3.9-18.5c0.2-1-0.5-2-1.6-2H41.2l3.6-21.8h13.5L55.6,53.8c-0.1,1.1,0.7,2,1.8,2h9.3L49.3,71.6z"/>
  <path fill="#01acf1" d="M27.5,36.2c-1.4-0.4-2.9,0.4-3.3,1.8c-1.4,4.3-2.1,8.8-2.1,13.4c0,15.8,9.3,30.2,23.8,36.8c0.4,0.2,0.8,0.3,1.3,0.3c1.1,0,2.1-0.6,2.5-1.6c0.7-1.4,0.1-3.1-1.3-3.8C36.5,77,28.5,64.2,28.5,51.4c0-3.9,0.6-7.7,1.8-11.4C30.7,38.5,29.9,36.6,27.5,36.2z"/>
  <path fill="#01acf1" d="M74.5,36.2c-2.4,0.4-3.2,2.3-2.8,3.8c1.2,3.7,1.8,7.5,1.8,11.4c0,12.8-8,25.6-20.3,31.6c-1.4,0.7-2,2.4-1.3,3.8c0.4,1,1.4,1.6,2.5,1.6c0.4,0,0.9-0.1,1.3-0.3c14.5-6.6,23.8-21,23.8-36.8c0-4.6-0.7-9.1-2.1-13.4C76.9,36.6,75.9,35.8,74.5,36.2z"/>
</svg>
