<?xml version="1.0" encoding="UTF-8"?><svg id="a" xmlns="http://www.w3.org/2000/svg" viewBox="0 0 91 92"><defs><style>.b{fill:#fff;}.c{fill:navy;}</style></defs><g><g><rect class="c" x="12.52" y="12.97" width="65.77" height="65.77"/><path class="c" d="M78.84,79.29H11.97V12.41H78.84V79.29Zm-65.77-1.1H77.74V13.52H13.07V78.19Z"/></g><path class="c" d="M91,92H-.45V0H91V92ZM4.53,86.98H86.01V5.01H4.53V86.98Z"/></g><g><path class="b" d="M69.9,30.45c-.17,4.54-.64,9.04-1.72,13.47-1.6,6.51-4.46,12.34-9.24,17.13-3.34,3.35-7.29,5.81-11.51,7.91-1.27,.63-2.32,.65-3.61,.01-4.64-2.29-8.93-5.04-12.46-8.88-4.03-4.38-6.57-9.55-8.09-15.25-1.13-4.24-1.68-8.57-1.86-12.95-.05-1.23-.08-2.46-.1-3.69-.02-1.51,1.02-2.28,2.48-1.85,2.07,.62,4.16,1.09,6.33,1.06,5.27-.08,9.81-1.98,13.75-5.44,.15-.13,.29-.27,.44-.4,.86-.77,1.74-.78,2.6,.01,2.94,2.73,6.33,4.57,10.27,5.41,3.45,.74,6.82,.43,10.16-.62,1.59-.5,2.57,.26,2.56,1.94,0,.7,0,1.41,0,2.11Zm-45.05-.16c-.02,.1-.03,.15-.03,.2,.15,4.56,.63,9.08,1.82,13.5,1.33,4.97,3.5,9.51,6.94,13.39,3.29,3.7,7.33,6.34,11.76,8.43,.16,.08,.43,.05,.6-.03,.72-.34,1.42-.7,2.13-1.07,8.33-4.36,13.82-11.03,16.34-20.12,.94-3.41,1.49-6.88,1.78-10.39,.11-1.29,.14-2.59,.21-3.93-7.83,1.71-14.69-.29-20.8-5.15-6.15,4.88-12.98,6.85-20.76,5.17Z"/><path class="b" d="M42.72,45.95h-.28c-1.32,0-2.63,0-3.95,0-.1,0-.2,0-.29-.02-.32-.09-.54-.29-.62-.61-.08-.31,.08-.55,.32-.73,.86-.66,1.73-1.32,2.59-1.98,3.21-2.46,6.43-4.92,9.64-7.37,.26-.2,.54-.31,.87-.17,.41,.18,.54,.52,.38,.99-.33,1.01-.67,2.02-1.01,3.03-.58,1.73-1.15,3.46-1.73,5.19-.02,.06-.04,.13-.07,.22h.26c1.33,0,2.66,0,3.99,0,.43,0,.67,.16,.8,.54,.1,.3,0,.6-.32,.83-4.07,3.11-8.14,6.23-12.21,9.34-.35,.27-.61,.3-.88,.13-.35-.22-.45-.52-.31-.95,.32-.97,.64-1.93,.97-2.9,.59-1.77,1.18-3.54,1.77-5.32,.02-.06,.04-.13,.07-.23Z"/></g></svg>