<?xml version="1.0" encoding="UTF-8"?><svg id="a" xmlns="http://www.w3.org/2000/svg" viewBox="0 0 102 104"><defs><style>.b{fill:#00e7ff;}</style></defs><path class="b" d="M50.28,19.05c10.6,0,11.86,.04,16.05,.23,4.33,.2,8.79,1.18,11.94,4.34,3.18,3.18,4.14,7.6,4.34,11.94,.19,4.19,.23,5.44,.23,16.05s-.04,11.86-.23,16.05c-.2,4.31-1.2,8.81-4.34,11.94-3.18,3.18-7.6,4.14-11.94,4.34-4.19,.19-5.44,.23-16.05,.23s-11.86-.04-16.05-.23c-4.27-.2-8.83-1.23-11.94-4.34-3.17-3.17-4.14-7.63-4.34-11.94-.19-4.19-.23-5.44-.23-16.05s.04-11.86,.23-16.05c.2-4.29,1.21-8.82,4.34-11.94,3.18-3.18,7.61-4.14,11.94-4.34,4.19-.19,5.44-.23,16.05-.23m0-7.16c-10.79,0-12.14,.05-16.38,.24-6.14,.28-12.24,1.99-16.67,6.43-4.45,4.45-6.15,10.54-6.43,16.67-.19,4.24-.24,5.59-.24,16.38s.05,12.14,.24,16.38c.28,6.13,2,12.25,6.43,16.67,4.45,4.45,10.54,6.15,16.67,6.43,4.24,.19,5.59,.24,16.38,.24s12.14-.05,16.38-.24c6.14-.28,12.24-1.99,16.67-6.43,4.46-4.46,6.15-10.54,6.43-16.67,.19-4.24,.24-5.59,.24-16.38s-.05-12.14-.24-16.38c-.28-6.14-1.99-12.24-6.43-16.67-4.44-4.44-10.55-6.15-16.67-6.43-4.24-.19-5.59-.24-16.38-.24Z"/><path class="b" d="M50.28,31.22c-11.26,0-20.39,9.13-20.39,20.39s9.13,20.39,20.39,20.39,20.39-9.13,20.39-20.39-9.13-20.39-20.39-20.39Zm0,33.63c-7.31,0-13.24-5.93-13.24-13.24s5.93-13.24,13.24-13.24,13.24,5.93,13.24,13.24-5.93,13.24-13.24,13.24Z"/><circle class="b" cx="71.49" cy="30.41" r="4.77"/></svg>