<?xml version="1.0" encoding="UTF-8"?><svg id="a" xmlns="http://www.w3.org/2000/svg" viewBox="0 0 92 92"><defs><style>.b{fill:#f9f8f7;}.c{fill:navy;}</style></defs><g><g><rect class="c" x="12.82" y="13.07" width="65.77" height="65.77"/><path class="c" d="M79.14,79.39H12.27V12.52H79.14V79.39Zm-65.77-1.1H78.04V13.62H13.37V78.29Z"/></g><path class="c" d="M92,91.82H-.16V.1H92V91.82ZM4.87,86.82H86.98V5.1H4.87V86.82Z"/></g><g><path class="b" d="M69.65,41.26c-.11,.52-.19,1.05-.33,1.57-.83,3.1-2.92,4.64-6.29,4.64-.25,0-.49,0-.77,0l-.6,1.92c.12,.02,.24,.05,.35,.06,1.88,.11,3.45,.93,4.88,2.08,.47,.38,.69,.93,.43,1.49-.97,2.07-2.33,3.77-4.61,4.49-1.49,.47-2.92,.13-4.3-.5-.53-.24-1.03-.55-1.58-.84l-1.61,1.18c1.96,1.46,2.67,3.53,2.93,5.81,.08,.7-.23,1.31-.86,1.52-1.84,.6-3.7,.78-5.56,.1-1.52-.56-2.54-1.69-3.1-3.16-.38-1.01-.6-2.09-.81-3.15-.15-.79,.36-1.41,1.2-1.58,1.49-.31,2.89-.82,4.21-1.58,6.12-3.53,8.46-11.35,5.25-17.65-.68-1.34-1.25-2.71-1.36-4.23-.18-2.5,.97-4.3,3.07-5.51,.79-.46,1.67-.77,2.53-1.08,.63-.23,1.26,0,1.57,.55,.99,1.8,1.53,3.7,1.07,5.76-.38,1.72-1.55,2.86-3.02,3.72-.29,.17-.59,.32-.9,.49l.79,2.34c.83-.61,1.76-.98,2.77-1.16,1.18-.2,2.36-.15,3.53,.07,.57,.11,.86,.54,1.12,1v1.66Zm-9.39-6.48c2.25-.81,3.22-3.07,2.07-4.86-2.28,.96-3.03,2.47-2.07,4.86Zm6.5,6.44c-2.58-.19-3.79,.99-4.01,3.42,2.42,.25,3.87-.89,4.01-3.42Zm-7.83,12.92c2.17,1.33,3.78,1.02,5.2-1.12-2.23-1.45-3.83-.9-5.2,1.12Zm-8.13,5.2c.42,2.46,1.96,3.49,4.37,2.94-.52-2.52-1.94-3.39-4.37-2.94Z"/><path class="b" d="M45.98,54.58c-6.09-.03-10.99-4.96-10.97-11.04,.02-6.08,4.97-10.99,11.05-10.97,6.07,.03,10.98,4.99,10.95,11.07-.03,6.06-4.98,10.97-11.03,10.94Zm-8.05-9.6c.21,2.4,2.68,5.58,4.52,5.98l-.94-5.98h-3.58Zm11.53,6.09c2.55-1.29,4.1-3.29,4.67-6.08h-3.7c-.12,1.04-.19,2.05-.35,3.05-.16,.99-.4,1.98-.61,3.03Zm-6.98-14.89c-2.04,.64-4.49,3.83-4.52,5.98h3.56l.97-5.98Zm11.61,5.99c-.28-2.42-2.35-5.2-4.54-5.96l.96,5.96h3.58Zm-8.07,9.52c1.2-2.09,1.46-4.36,1.59-6.69h-3.2c.15,2.34,.39,4.62,1.61,6.69Zm.06-16.18c-.95,.8-1.75,5.23-1.6,6.65h3.14c-.18-2.32-.4-4.58-1.55-6.65Z"/><path class="b" d="M36.77,57.33l-1.62-1.19c-1.08,.7-2.21,1.26-3.5,1.48-1.96,.33-3.61-.3-4.93-1.7-.73-.77-1.33-1.69-1.9-2.59-.46-.72-.28-1.39,.41-1.91,1.44-1.11,3.01-1.91,4.87-1.98,.05,0,.09,0,.14-.02,.03,0,.05-.03,.09-.06-.17-.56-.32-1.14-.52-1.7-.04-.1-.28-.19-.43-.19-1.04,.02-2.06-.07-3.05-.41-2.1-.73-3.21-2.31-3.68-4.38-.2-.88-.24-1.79-.28-2.7-.03-.67,.36-1.2,.99-1.34,2.06-.43,4.07-.37,5.94,.73,.16,.09,.31,.2,.48,.31l.79-2.33c-.42-.24-.86-.46-1.27-.73-2.33-1.51-3.25-3.63-2.65-6.34,.2-.91,.56-1.79,.92-2.64,.34-.8,.99-1.08,1.82-.78,.88,.32,1.77,.65,2.56,1.13,2.53,1.54,3.46,3.85,2.71,6.72-.24,.93-.62,1.83-1.04,2.7-2.42,5.01-2.07,9.81,1.17,14.32,1.98,2.76,4.75,4.4,8.07,5.12,1.07,.23,1.43,.76,1.3,1.85-.15,1.33-.51,2.59-1.2,3.75-1.04,1.75-2.61,2.59-4.6,2.73-1.13,.08-2.24-.08-3.33-.38-.93-.26-1.29-.82-1.17-1.79,.21-1.77,.72-3.43,1.94-4.79,.28-.31,.61-.57,.94-.88Zm-5.01-22.54c.86-2.28,.35-3.91-2.11-4.87-.95,2.44-.17,3.89,2.11,4.87Zm-6.52,6.42c-.02,2.28,2,3.97,4.04,3.41-.27-2.42-1.39-3.56-4.04-3.41Zm2.65,11.8c1.33,2.05,3.03,2.55,5.18,1.1-1.36-2.01-2.97-2.52-5.18-1.1Zm13.33,6.32c-2.36-.4-3.84,.34-4.36,2.96,2.38,.51,3.94-.46,4.36-2.96Z"/></g></svg>