<?xml version="1.0" encoding="UTF-8"?><svg id="a" xmlns="http://www.w3.org/2000/svg" viewBox="0 0 91 92"><defs><style>.b{fill:#01acf1;}</style></defs><path class="b" d="M79.34,80.86H12.42l-.02-.17c.25-.04,.5-.11,.75-.13,6.04-.37,12.08-.71,18.12-1.13,2.04-.14,4.09-.35,6.09-.74,4.69-.92,7.55-3.99,8.11-8.71,.44-3.69-.36-7.13-2.78-10.05-1.94-2.34-4.42-3.63-7.5-3.57-1.6,.03-3.18,.01-4.67-.68-2.64-1.23-4.01-3.37-4.43-6.19-.03-.18-.05-.36-.09-.54,0-.03-.04-.05,.06,.06-1.49,0-2.85,.03-4.22,0-4.96-.12-8.96-2.97-10.57-7.65-1.51-4.39-.14-9.83,3.76-12.23,.21-.13,.38-.46,.41-.72,.59-4.81,3.82-8.22,8.59-9.1,.31-.06,.69-.36,.82-.65,1.55-3.42,5.91-5.49,9.52-4.42,.93,.28,1.54,.25,2.33-.46,2.95-2.65,7.49-2.93,10.84-.84,.25,.16,.68,.19,.97,.11,2.59-.77,5-.5,7.24,1.1,.26,.18,.67,.24,1,.22,3.23-.18,5.9,.78,7.7,3.63,.16,.24,.5,.45,.79,.51,3.03,.67,5.16,2.38,6.34,5.27,.12,.3,.43,.58,.72,.73,2.73,1.37,4.19,3.47,3.92,6.62-.02,.24,.16,.57,.35,.74,2.83,2.45,3.57,5.12,2.42,8.71-.07,.23-.07,.55,.05,.75,2.45,4.28,.03,10.62-4.32,13.07-1.24,.7-2.61,1.16-3.98,1.76-.05,.85,.02,1.88-.19,2.84-.81,3.7-3.63,6.16-7.58,6.7-4.4,.6-8.23-.48-11.44-3.84,.09,.76,.11,1.53,.27,2.28,.59,2.7,.93,5.42,.69,8.19-.4,4.61,2.48,6.26,5.56,6.72,3.04,.46,6.14,.54,9.22,.76,3.87,.28,7.75,.52,11.62,.79,.17,.01,.33,.08,.5,.12l-.03,.15ZM31.09,40.92c-.86-.48-1.53-1.04-2.29-1.24-.82-.22-1.72-.17-2.58-.12-.54,.03-1.07,.2-1.29-.47-.23-.7,.22-1.02,.8-1.19,.44-.13,.89-.23,1.34-.28,1.42-.16,2.62,.44,3.77,1.17,2.8,1.79,5.82,2.12,8.98,1.32,4.45-1.13,6.68-5.68,4.74-9.65-.32-.66-.74-1.27-1.15-1.87-1.3-1.92-1.35-3.93-.47-6.01,.24-.56,.5-1.12,.63-1.71,.36-1.6-.23-2.5-1.78-3.06-.28-.1-.67-.66-.59-.83,.15-.34,.56-.78,.89-.8,1.06-.07,1.86,.52,2.45,1.36,1.09,1.59,1.12,3.31,.29,4.96-1.1,2.18-.88,4.05,.56,6.05,2.54,3.52,2.05,7.97-1.04,10.92-1.85,1.76-4.09,2.64-6.63,2.71-1.46,.05-2.94-.1-4.4,0-3.29,.24-5.54,2.87-5.55,6.37,0,3.25,2.11,5.63,5.39,5.95,2,.2,4.02,.31,5.93,.45-.24-.42-.7-.95-.84-1.54-.25-1.03-.82-1.25-1.8-1.33-3.17-.26-5.23-3.11-4.57-6.15,.14-.64,.4-1.14,1.15-.98,.76,.16,.76,.7,.61,1.36-.49,2.23,1.06,4.1,3.34,4.13,.5,0,.68-.16,.77-.65,.52-2.71,1.95-4.07,4.68-4.52,.92-.15,1.83-.3,2.82-.46-.59-1.25-.76-2.37-.28-3.53,.24-.58,.61-.95,1.27-.72,.67,.24,.58,.75,.37,1.29-.3,.76-.27,1.48,.34,2.09,.1-.03,.16-.03,.21-.06,.11-.06,.21-.13,.3-.2,1.84-1.48,2.72-3.48,2.74-5.76,.01-1.47-.36-2.94-.61-4.4-.1-.55-.23-1.06,.4-1.32,.67-.28,1.03,.14,1.27,.7,.11,.25,.19,.52,.25,.78,.22,1.03,.43,2.07,.65,3.16,1.9-1.29,3.9-1.05,5.94-.54,.62,.15,1.27,.27,1.89,.25,.96-.03,1.7-.51,1.97-1.49,.17-.65,.53-.99,1.18-.79,.7,.21,.68,.79,.49,1.36-.48,1.44-1.5,2.41-2.98,2.49-1.37,.07-2.78-.19-4.15-.42-2.29-.39-4.26,.6-4.88,2.54-1.38,4.32-4.05,6.51-8.57,6.68-2.46,.09-4.11,2.19-3.53,4.76,.68,2.99,3.41,3.9,5.61,5.71-.27-2.3,.04-4.23,1.05-6.02,1.2-2.13,3.1-3.33,5.39-3.95,2.57-.69,4.24-3.47,2.94-5.74-.26-.45-.27-1,.33-1.24,.6-.24,1.1-.07,1.3,.6,.19,.63,.33,1.27,.52,1.99,1.7-1.2,3.55-1.73,5.46-2.2,4.07-1,5.95-4.35,4.66-8.02-.78-2.22-3.02-3.77-5.45-3.77-2.32,0-3.92,1.17-4.76,3.54-.18,.52-.46,.77-1.01,.68-.6-.1-.78-.59-.61-1.03,.36-.92,.7-1.93,1.32-2.66,2.49-2.93,7.11-3.04,10.18-.24,.76,.69,1.35,.57,1.99,.08,.47-.36,.95-.82,1.21-1.34,1.78-3.45-1.45-7.36-4.27-7.62l-.82,3.12c.36,.19,.83,.39,1.26,.67,.35,.23,.78,.49,.93,.84,.14,.34-.02,.82-.05,1.24-.39-.04-.9,.07-1.15-.14-1.32-1.1-2.81-1.4-4.46-1.21-.57,.06-1.18,.12-1.26-.66-.08-.69,.42-.95,1.02-1.06,.21-.04,.42-.07,.64-.08,1.11-.06,1.66-.37,1.82-1.47,.12-.83,.07-1.81-.27-2.56-1.03-2.27-4.11-3.57-6.71-2.94-.65,.16-1.05,.07-1.51-.44-1.3-1.44-4.08-1.88-5.6-1l.81,2.54c.1,.02,.22,.05,.34,.05,2.11,.05,3.94,.72,5.38,2.34,.15,.16,.52,.21,.77,.17,.81-.12,1.61-.35,2.42-.44,.57-.07,1.06,.21,1.06,.86,0,.59-.4,.85-.98,.86-.15,0-.31,0-.46,.03q-1.72,.22-1.7,1.94c0,.24,0,.49-.02,.73-.24,2.95-3.04,5.05-5.9,4.43-1.68-.36-2.89-1.98-2.73-3.62,.15-1.56,1.58-2.94,3.1-3,.58-.02,1.16,.05,1.26,.76,.1,.73-.37,.91-1.01,.97-.83,.08-1.45,.53-1.58,1.4-.12,.85,.37,1.46,1.12,1.67,.58,.17,1.3,.21,1.85,.02,2.12-.75,2.89-3.3,1.66-5.24-1.06-1.67-3.17-2.47-5.3-2.01-.93,.2-1.42-.19-1.24-1.09,.32-1.59-.36-2.76-1.54-3.66-1.93-1.47-4.13-1.34-6.31-.77-1.19,.3-2.22,.96-2.94,1.83,.54,.93,1.05,1.76,1.49,2.62,.25,.5,.25,1.06-.39,1.3-.65,.24-1.01-.1-1.24-.72-.4-1.11-1.14-1.92-2.23-2.43-2.49-1.15-5.74-.48-7.56,1.58-1.53,1.73-1.52,2.96-.04,4.69,.21,.25,.29,.87,.12,1.09-.18,.24-.76,.38-1.08,.28-.4-.12-.81-.47-1.05-.83-.39-.6-.65-1.29-1.02-2.04-2.93,.44-5.16,2-6.41,4.74-1,2.21-1.35,4.47,.72,6.42,.18,.17,.23,.78,.08,.95-.2,.23-.77,.41-.99,.29-.51-.29-.96-.73-1.33-1.2-.32-.41-.5-.94-.79-1.5-.44,.41-.85,.74-1.18,1.12-3.4,3.89-2.41,10.74,1.99,13.68,2.64,1.77,5.57,2.01,8.62,1.54,.79-.12,1.37-.26,1.47-1.23,.05-.52,.39-1.02,.64-1.51,.82-1.61,2.15-2.68,3.95-3.43Zm18.38,19.08c.15-.25,.23-.38,.29-.51,2.11-4.66,6.71-6.68,11.63-6.16,1.72,.18,3.43,.55,5.14,.9,5.19,1.05,10.21-1.96,11.51-6.98,.43-1.65,.41-3.31-.45-4.88-.2,.07-.31,.11-.42,.15-.57,.24-1.19,.58-1.58-.21-.36-.74,.3-.95,.72-1.35,.51-.49,1.07-1.05,1.3-1.7,.71-1.93-.15-4.53-1.81-5.75-.22-.16-.64-.14-.94-.07-.59,.13-1.14,.42-1.73,.52-.54,.09-.97-.17-1-.8-.03-.58,.27-.9,.84-1.01,1.26-.23,1.77-.88,1.62-2.14-.19-1.67-1.1-2.85-2.62-3.76-.29,2.5-1.34,4.37-3.78,5.24,1.4,3.4,.86,6.43-1.74,9.28,1.08-.08,1.88-.08,2.65-.2,1.94-.31,3.12-1.68,3.17-3.66,.01-.56,.13-1,.78-.99,.63,.01,.9,.39,.92,1.01,.09,2.3-1.39,4.56-3.71,5.07-1.73,.38-3.56,.44-5.35,.42-5.36-.06-7.39,1.74-9.59,4.89,1.09,.37,2.17,.75,3.27,1.11,1.44,.47,2.89,.76,4.39,.2,1.57-.59,2.89-1.45,3.6-3.04,.26-.57,.72-.89,1.22-.51,.28,.21,.36,.81,.38,1.23,.01,.26-.24,.55-.4,.81-.68,1.1-.59,1.45,.56,2.07,.84,.45,1.7,.45,2.56,.05,1.68-.77,2.26-2.37,1.63-4.5-.15-.51-.18-1.01,.39-1.25,.58-.24,1.06,0,1.26,.57,1.12,3.12-.43,6.89-4.25,7.15-1.75,.12-3.11-.66-4.2-1.94-3.22,1.42-3.99,1.62-6.39,1.14-1.22-.24-2.38-.77-3.57-1.14-2.72-.86-5.54,.26-6.88,2.77-1.44,2.7-1,5.29,.55,7.96Zm4.57-3.07c2.42,3.71,5.79,5.79,10.08,6.35,.63,.08,1.31-.28,1.96-.43l-.03-.29c-.25-.06-.5-.13-.75-.17-3.96-.61-7.32-2.3-9.78-5.54-.56-.74-.94-.53-1.49,.09Zm2.69-1.4c.06,.13,.11,.24,.17,.34,.12,.17,.25,.35,.39,.5,2.7,3.05,6.19,4.34,10.16,4.51,.34,.01,.69-.4,1.04-.62l-.14-.29c-.39-.05-.77-.1-1.16-.16-3.17-.48-6.14-1.45-8.41-3.86-.63-.67-1.18-.88-2.07-.42Zm3.62-.74l-.09,.34c2.45,2.18,5.47,2.8,8.69,3.21,.02-.41,.05-.71,.05-1.01,0-.8-.22-1.25-1.19-1.26-.99,0-1.99-.28-2.98-.46-1.49-.26-2.98-.54-4.48-.82Zm-.68,9.19c-1.19-.77-2.54-1.49-3.7-2.44-1.19-.97-2.19-2.16-3.42-3.41-.06,.53-.29,1.07-.14,1.45,.97,2.36,4.83,4.61,7.26,4.39Z"/><path class="b" d="M19.92,39.24c.36-2.33,1.29-4.29,3.3-5.61,2.82-1.85,5.68-1.65,8.62-.27,1.4,.66,2.88,1.17,4.33,1.7,.52,.19,.91,.44,.81,1.02-.11,.59-.59,.82-1.12,.63-1.63-.58-3.28-1.14-4.84-1.87-2.89-1.36-5.76-1.06-7.71,.95-1.88,1.93-2.19,4.76-.8,7.28,.28,.51,.72,1.05-.03,1.49-.77,.44-1.22-.11-1.52-.71-.34-.68-.62-1.39-.84-2.12-.14-.47-.35-.69-.84-.8-1.55-.36-2.89-1.08-3.52-2.63-.26-.63-.32-1.35-.36-2.04-.04-.56,.29-.94,.91-.89,.54,.04,.76,.36,.77,.93,.02,1.73,.99,2.74,2.85,2.94Z"/><path class="b" d="M38.17,30.53c-1.16-1.67-1.78-3.39-1.47-5.34,.1-.63,.28-1.25,.51-1.84,.22-.56,.66-.91,1.3-.64,.66,.28,.52,.75,.28,1.29-.9,2.06-.51,3.9,.94,5.6,1.13,1.32,2.05,2.77,1.91,4.61-.03,.34-.23,.8-.5,.97-.58,.37-1.23-.11-1.23-.82,0-.21,.06-.43,.04-.64-.13-1.33-.36-1.54-1.66-1.4-5.15,.55-8.44-4.52-6.73-9.03,.64-1.7,.49-2.05-1.13-2.86-.28-.14-.63-.77-.54-.92,.19-.31,.67-.65,1.01-.63,1.78,.09,3.16,2.22,2.62,3.98-.15,.5-.36,.97-.52,1.46-1.09,3.22,1.76,6.76,5.18,6.21Z"/><path class="b" d="M24.84,25.67c1.98,.02,3.33,1.01,4.2,2.73,.27,.55,.34,1.09-.32,1.4-.64,.3-.97-.13-1.2-.63-.58-1.24-1.58-1.89-2.92-1.79-1.37,.1-2.2,.97-2.53,2.28-.14,.56-.37,1.02-1.04,.85-.71-.17-.72-.75-.62-1.32,.31-1.96,2.29-3.52,4.44-3.52Z"/></svg>