<?xml version="1.0" encoding="UTF-8"?><svg id="a" xmlns="http://www.w3.org/2000/svg" viewBox="0 0 102 104"><defs><style>.c{fill:#00e7ff;}</style></defs><path id="b" class="c" d="M78.27,80.29h-11.65v-18.24c0-4.35-.08-9.95-6.06-9.95s-7,4.74-7,9.63v18.56h-11.64V42.78h11.18v5.13h.15c2.28-3.9,6.52-6.23,11.03-6.06,11.81,0,13.98,7.77,13.98,17.87v20.58ZM28.78,37.65c-3.73,0-6.76-3.03-6.76-6.76s3.03-6.76,6.76-6.76,6.76,3.03,6.76,6.76c0,3.73-3.03,6.76-6.76,6.76h0m5.82,42.64h-11.66V42.78h11.66v37.51ZM84.08,13.31H17.09c-3.16-.03-5.76,2.5-5.8,5.67V86.25c.04,3.17,2.63,5.71,5.8,5.67H84.08c3.17,.04,5.78-2.5,5.82-5.67V18.98c-.05-3.17-2.65-5.71-5.82-5.67"/></svg>