<?xml version="1.0" encoding="UTF-8"?><svg id="a" xmlns="http://www.w3.org/2000/svg" viewBox="0 0 92 92"><defs><style>.b{fill:#f9f8f7;}.c{fill:navy;}</style></defs><g><rect class="c" x="12.91" y="12.97" width="65.77" height="65.77"/><path class="c" d="M79.23,79.29H12.36V12.41H79.23V79.29Zm-65.77-1.1H78.13V13.52H13.46V78.19Z"/></g><path class="c" d="M92,92H-.06V0H92V92ZM4.96,86.98H86.98V5.01H4.96V86.98Z"/><g><path class="b" d="M20.3,54.38c.25-1.37,1.14-2.26,2.16-3.12,3.43-2.89,6.83-5.82,10.24-8.75,.22-.19,.31-.2,.53,.03,1.24,1.28,2.51,2.54,3.79,3.78,.2,.19,.2,.27,.03,.46-3.17,3.7-6.33,7.41-9.51,11.1-1.08,1.25-2.5,1.58-4.05,1.15-1.67-.46-2.68-1.6-3.08-3.29-.03-.13,0-.27-.11-.37v-1Z"/><path class="b" d="M52.68,36.55c0,.55-.19,1.01-.57,1.39-2.56,2.56-5.11,5.13-7.68,7.68-.83,.82-2,.83-2.82,.01-2.58-2.56-5.16-5.13-7.72-7.72-.82-.83-.81-2,.02-2.82,2.55-2.57,5.11-5.13,7.68-7.68,.81-.8,1.97-.82,2.78-.02,2.6,2.57,5.17,5.16,7.76,7.75,.38,.38,.57,.85,.56,1.4Z"/><path class="b" d="M60.19,40.74c0,1.19-.31,1.95-.92,2.56-3.16,3.17-6.31,6.34-9.49,9.48-1.29,1.27-3.3,1.25-4.55,.02-1.28-1.27-1.3-3.26-.04-4.59,.34-.36,.69-.72,1.06-1.06,.24-.21,.24-.36,0-.55-.12-.09-.21-.22-.32-.31-.18-.15-.18-.27,0-.44,2.14-2.13,4.28-4.26,6.4-6.41,.25-.25,.35-.08,.51,.07q.54,.52,1.07-.01c.31-.31,.6-.63,.93-.91,1.06-.89,2.26-1.07,3.5-.49,1.23,.57,1.83,1.6,1.86,2.65Z"/><path class="b" d="M29.05,35.27c-1.37-.04-2.41-.65-2.97-1.92-.56-1.28-.39-2.52,.59-3.52,3.17-3.22,6.37-6.42,9.59-9.6,1.27-1.25,3.26-1.2,4.51,.04,1.23,1.22,1.29,3.18,.11,4.48-.37,.41-.76,.8-1.16,1.17-.21,.19-.2,.31,0,.51,.56,.56,.55,.57-.02,1.14-1.97,1.97-3.95,3.94-5.91,5.92-.27,.28-.42,.3-.69,0-.45-.5-.47-.48-.95,0-.3,.29-.58,.6-.89,.88-.62,.58-1.36,.89-2.22,.89Z"/><path class="b" d="M57.37,66.59c-4.41,0-8.81,0-13.22,0-.13,0-.27,0-.4,0-.36-.04-.6-.25-.59-.62,.01-.37,.25-.57,.62-.58,.83,0,1.67-.02,2.5,0,.36,.01,.45-.11,.44-.46-.02-.98-.01-1.97,0-2.95,0-.62,.18-.8,.81-.8,6.54,0,13.08,0,19.63,0,.65,0,.83,.18,.83,.83,0,.98,.01,1.97,0,2.95,0,.33,.09,.43,.42,.42,.78-.02,1.57,0,2.35,0,.53,0,.81,.22,.8,.61,0,.38-.3,.59-.83,.59-4.46,0-8.91,0-13.37,0Z"/><path class="b" d="M57.37,59.98c-2.45,0-4.91,0-7.36,0-.37,0-.53-.08-.47-.47,.02-.11,.01-.23,0-.35-.14-1.51,.93-2.23,2.18-2.21,3.75,.05,7.51,.02,11.26,.02,1.53,0,2.2,.66,2.2,2.19q0,.82-.81,.82c-2.34,0-4.67,0-7.01,0Z"/><path class="b" d="M33.99,39.77c.11,.1,.23,.2,.33,.3,1.71,1.71,3.42,3.41,5.12,5.13,.11,.11,.33,.19,.25,.38-.07,.15-.28,.16-.44,.18-.63,.09-1.2-.04-1.66-.5-1.11-1.1-2.23-2.2-3.32-3.32-.61-.63-.7-1.42-.28-2.17Z"/></g></svg>