<?xml version="1.0" encoding="UTF-8"?><svg id="a" xmlns="http://www.w3.org/2000/svg" viewBox="0 0 91.72 91.72"><defs><style>.b{fill:#f9f8f7;}.c{fill:navy;}</style></defs><g><rect class="c" x="12.97" y="12.97" width="65.77" height="65.77"/><path class="c" d="M79.29,79.3H12.42V12.42H79.29V79.3Zm-65.77-1.1H78.19V13.52H13.52V78.19Z"/></g><path class="c" d="M92.16,91.72H0V0H92.16V91.72ZM5.02,86.72H87.13V5H5.02V86.72Z"/><path class="b" d="M46.9,68.66c-.86,1.15-1.7,1.5-2.72,1.19-.43-.13-.76-.4-1.07-.7-1.87-1.85-3.74-3.69-5.6-5.54-.28-.28-.41-.32-.69,.01-.42,.51-1.02,.7-1.68,.56-.64-.13-1.29-.26-1.92-.44-.97-.27-1.52-1.19-1.3-2.17,.71-3.15,1.42-6.29,2.15-9.43,.26-1.13,1.16-1.69,2.29-1.46,.54,.11,1.08,.24,1.62,.36,.65,.15,1.14,.5,1.37,1.14,.1,.28,.27,.3,.51,.3,1.07,0,2.14-.02,3.21,0,.41,.01,.52-.11,.51-.52-.02-3.21,0-6.43,0-9.64,0-1.57,0-3.14,0-4.72,0-.78,.2-1,.96-1.02,.29,0,.39-.08,.38-.38,0-3.59,0-7.19,0-10.78,0-.2-.04-.35-.21-.5-.49-.43-.84-.97-1.02-1.59-.07-.26-.2-.32-.44-.32-3.83,0-7.67,0-11.5,0-.49,0-.33,.23-.23,.47,1.51,3.96,3.01,7.93,4.52,11.9,.7,1.85,1.36,3.73,2.14,5.55,.46,1.07,.43,2.11,.17,3.18-.96,3.94-4.69,6.67-8.65,6.33-4.14-.36-7.35-3.57-7.67-7.66-.03-.44,.02-.85,.18-1.26,2.28-5.96,4.54-11.92,6.81-17.89q.23-.61-.41-.61c-1.83,0-3.66,0-5.49,0-.16,0-.31,0-.47-.01-.38-.05-.59-.28-.63-.65-.03-.37,.16-.64,.52-.74,.21-.06,.44-.05,.67-.05,6.58,0,13.16,0,19.74,0,.44,0,.68-.07,.85-.55,.48-1.39,1.85-2.28,3.33-2.27,1.45,.01,2.79,.92,3.26,2.29,.16,.46,.38,.53,.81,.53,6.6-.01,13.2,0,19.8,0,.21,0,.42,0,.62,.04,.36,.09,.57,.35,.55,.72-.02,.39-.25,.64-.65,.68-.15,.02-.31,0-.47,0-1.8,0-3.59,0-5.39,0q-.71,0-.46,.64c2.19,5.75,4.35,11.52,6.59,17.25,.43,1.1,.44,2.14,.17,3.23-.94,3.83-4.46,6.47-8.42,6.31-3.86-.15-7.18-3.1-7.81-6.93-.14-.83-.07-1.61,.24-2.42,2.25-5.82,4.45-11.66,6.67-17.5q.22-.58-.38-.58c-3.71,0-7.43,0-11.14-.01-.4,0-.58,.1-.69,.49-.15,.54-.47,1-.89,1.37-.2,.18-.26,.37-.26,.63,0,3.54,0,7.08,0,10.62,0,.3,.03,.46,.41,.46,.71,0,.93,.25,.93,.99,0,4.72,0,9.43,0,14.15,0,.45,.11,.73,.53,.93,.51,.24,1,.55,1.49,.84,.65,.39,1.29,.27,1.92-.04,.19-.09,.16-.22,.15-.38-.05-1.07,.48-1.78,1.52-2.04,.5-.13,1.01-.24,1.51-.35,1.25-.26,2.14,.3,2.42,1.55,.53,2.3,1.05,4.61,1.58,6.91,.18,.81,.38,1.61,.55,2.42,.21,.99-.33,1.9-1.29,2.17-.66,.19-1.34,.33-2.02,.46-.54,.1-1.04-.06-1.44-.43-.4-.36-.66,.05-.98,.12-.29,.06-.29,.26-.28,.51,0,1.04-.56,1.83-1.55,2.14-.25,.08-.34,.18-.38,.45-.24,1.53-1.67,2.31-3.1,1.72-.18-.07-.3-.17-.47,.06-1.08,1.37-2.4,1.44-3.65,.2-.07-.07-.12-.17-.21-.3ZM30.37,24.5h-.12l-6.44,16.94h.54c3.97,0,7.94,0,11.91,.01,.49,0,.53-.11,.37-.53-1.44-3.75-2.87-7.5-4.29-11.26-.65-1.72-1.31-3.44-1.96-5.16Zm33.56-.11c-.1,.21-.16,.31-.2,.42-2.05,5.4-4.1,10.8-6.16,16.19-.15,.38-.08,.46,.32,.46,4.01-.01,8.01-.02,12.02,0,.51,0,.46-.16,.32-.52-.81-2.09-1.6-4.19-2.39-6.28-1.29-3.38-2.57-6.76-3.91-10.27Zm-20.14,29.52c-1.5,0-2.86,0-4.22,0-.28,0-.29,.19-.33,.37-.53,2.34-1.06,4.67-1.61,7.01-.06,.26,0,.41,.18,.58,2.13,2.1,4.25,4.2,6.38,6.3,.42,.41,.85,.44,1.18,.1,.31-.33,.26-.77-.14-1.18-.48-.49-.98-.97-1.46-1.47-.36-.37-.39-.79-.1-1.1,.32-.33,.73-.3,1.14,.08,.13,.12,.24,.24,.37,.37,1.04,1.04,2.08,2.08,3.11,3.11,.25,.25,.54,.38,.89,.23,.28-.12,.43-.33,.45-.64,.02-.31-.14-.52-.34-.72-1.02-1.01-2.03-2.02-3.04-3.04-.43-.44-.47-.84-.14-1.17,.33-.33,.73-.27,1.17,.16,.44,.44,.88,.88,1.32,1.32,.98,.98,1.95,1.96,2.93,2.93,.47,.46,1.04,.4,1.29-.11,.2-.42,.01-.72-.28-1.01-1.31-1.3-2.62-2.61-3.92-3.92-.55-.55-.64-.97-.28-1.32,.35-.34,.77-.24,1.33,.31,1.26,1.26,2.51,2.52,3.78,3.77,.42,.41,.91,.42,1.21,.04,.27-.34,.2-.74-.2-1.14-1.71-1.71-3.42-3.42-5.13-5.13-.83-.83-1.57-.89-2.54-.24-.65,.43-1.3,.85-2.03,1.12-1.57,.58-2.87,.27-4-.94-.54-.57-.52-.9,.07-1.43,1.06-.95,1.95-2.04,2.96-3.24Zm20.16-11.01c-2.09,0-4.18,0-6.27,0q-.6,0-.47,.61c.25,1.19,.74,2.26,1.57,3.16,1.89,2.04,4.21,2.81,6.9,2.09,2.68-.73,4.29-2.57,4.94-5.26,.11-.45,.02-.61-.5-.6-2.05,.03-4.11,.01-6.16,.01Zm-33.66,0c-2.07,0-4.14,.02-6.22-.01-.5,0-.56,.15-.48,.58,.59,3.17,3.49,5.56,6.76,5.55,3.26-.02,6.15-2.46,6.69-5.63,.07-.39-.02-.5-.43-.49-2.11,.02-4.21,0-6.32,0Zm14.75,9.48c.19,.04,.25-.06,.32-.13,1.02-.87,2.15-1.21,3.46-.78,.38,.13,.34-.1,.34-.34,0-4.23,0-8.46,0-12.69,0-.33-.09-.45-.43-.44-1.05,.02-2.11,.03-3.16,0-.43-.01-.55,.1-.55,.54,.02,2.76,.01,5.52,.01,8.29,0,1.85,0,3.69,0,5.55Zm11.69,9.61c-.09-.39-.19-.81-.29-1.23-.42-1.85-.84-3.7-1.27-5.54-.03-.14,.04-.49-.33-.33-1.23,.55-2.34,.25-3.43-.42-.91-.56-1.82-1.12-2.81-1.54-.82-.35-1.55-.21-2.21,.36-.24,.2-.46,.42-.67,.64-1.15,1.22-2.15,2.57-3.35,3.74-.21,.2-.14,.31,.07,.42,.43,.23,.87,.3,1.35,.19,.83-.19,1.51-.66,2.2-1.11,1.57-1.02,3.06-.87,4.39,.46,1.48,1.48,2.95,2.95,4.43,4.43q.79,.79,1.73,.23c.11-.07,.21-.12,.18-.3Zm4.14-.09c-.1-.43-.19-.85-.29-1.27-.62-2.69-1.24-5.37-1.85-8.06-.1-.42-.29-.59-.73-.48-.45,.12-.9,.22-1.36,.31-.43,.08-.58,.29-.46,.73,.21,.8,.37,1.61,.56,2.42,.51,2.23,1.03,4.46,1.53,6.7,.09,.4,.27,.56,.69,.46,.5-.13,1.01-.23,1.51-.34,.25-.06,.38-.22,.39-.47Zm-22.81-8.98c0-.28-.14-.43-.42-.49-.45-.1-.91-.21-1.36-.31-.59-.13-.69-.07-.83,.51-.7,3.02-1.38,6.04-2.08,9.06-.1,.42,.05,.62,.45,.7,.44,.09,.88,.18,1.31,.3,.46,.13,.7,0,.81-.5,.43-1.95,.88-3.9,1.33-5.84,.26-1.14,.53-2.28,.79-3.43Zm9.77-21.69c0-1.47,0-2.93,0-4.4,0-.33,.09-.73-.06-.96-.15-.23-.57,.03-.87-.05-.02,0-.04,0-.05,0-.41-.13-.48,.06-.48,.44,.01,3.12,0,6.24,0,9.37,0,.94,0,.91,.96,.94,.43,.01,.51-.14,.5-.53-.02-1.6,0-3.21,0-4.81Zm1.36-8.93c0-1.17-.92-2.11-2.09-2.11-1.17,0-2.1,.94-2.09,2.11,0,1.15,.91,2.07,2.06,2.09,1.16,.02,2.11-.92,2.12-2.09Z"/></svg>