<?xml version="1.0" encoding="UTF-8"?><svg id="a" xmlns="http://www.w3.org/2000/svg" viewBox="0 0 91 92"><defs><style>.b{fill:#01acf1;}</style></defs><path class="b" d="M45.45,24.08c.32-.45,.56-.74,.75-1.06,4.68-8.02,13.75-12.12,22.74-10.16,7.69,1.67,13.12,6.26,15.68,13.65,2.84,8.2,1.36,15.8-4.79,22.16-7.15,7.38-14.41,14.65-21.62,21.97-2.77,2.81-5.5,5.65-8.28,8.44-2.66,2.67-6.26,2.72-8.92,.04-5.8-5.86-11.55-11.78-17.32-17.66-4.22-4.31-8.54-8.52-12.66-12.93-6.01-6.44-7.48-13.94-4.47-22.2,2.22-6.08,6.5-10.27,12.54-12.65,9.17-3.62,20.71,.48,25.58,9.07,.22,.39,.45,.78,.77,1.34Zm14.76,40.33c-.27-.13-.36-.21-.44-.21-3.12,.05-5.47-1.42-7.55-3.62-2.55-2.7-5.25-5.26-7.85-7.92-1.3-1.33-1.53-3.51-.39-4.71,.79-.83,.52-1.24-.14-1.9-1.5-1.5-1.68-3.47-.42-4.92,.51-.59,.57-1.06,.31-1.76-.97-2.64,1.02-5.07,3.83-4.8,.4,.04,.93-.12,1.21-.38,1.72-1.62,3.68-1.7,5.4-.1,1.28,1.2,2.5,2.47,3.76,3.7,.76,.75,1.53,1.49,2.38,2.32,.19-.5,.31-.81,.43-1.11,.55-1.49,1.95-2.48,3.51-2.48,1.43,0,2.97,.94,3.41,2.33,1.08,3.41,2.07,6.84,3.05,10.28,.33,1.18,.49,2.42,.76,3.76,.31-.27,.56-.47,.78-.7,1.72-1.74,3.42-3.51,5.16-5.24,4.6-4.57,6.41-10.05,5.27-16.42-1.22-6.83-5.21-11.59-11.6-14.05-7.71-2.96-15.84-.49-20.99,5.95-1.51,1.89-2.43,4.08-3.27,6.33-.17,.44-.83,.95-1.28,.96-.46,0-.95-.53-1.38-.88-.16-.13-.2-.41-.27-.63-2.33-7.78-9.84-13.2-17.94-12.93-.93,.03-1.85,.19-2.78,.3l-.02,.29c.5,.14,1,.26,1.49,.42,2.75,.84,5.52,1.66,8.25,2.55,1.55,.51,2.48,1.84,2.52,3.36,.04,1.72-.76,2.96-2.38,3.65-.35,.15-.71,.3-1.18,.5,2.06,2.05,4.02,4.02,6,5.96,1.47,1.45,1.67,3.81,.26,5.16-.63,.6-.73,1.14-.68,1.91,.14,2.06-1.49,3.93-3.53,3.64-1.52-.22-2.7-.15-4.06,.65-1.42,.85-2.86,.14-3.95-.97-.64-.65-1.04-.84-1.83-.14-1.05,.95-2.39,1-3.64,.37-.69-.35-1.3-.9-1.85-1.47-3.36-3.5-7.11-6.64-10.16-10.64-.13,.44-.32,.82-.35,1.21-.46,5.25,.91,9.99,4.51,13.85,4.41,4.73,9.01,9.28,13.53,13.9,5.47,5.59,10.95,11.16,16.41,16.75,2.08,2.13,3.77,2.14,5.84,.03,3.66-3.75,7.34-7.47,11-11.21,.27-.27,.51-.58,.84-.95Zm-7.67-13.97v.52c-.39,.3-.86,.54-1.18,.91-.6,.7-1.05,.85-1.71,.02-.64-.79-1.42-1.49-2.21-2.14-.22-.18-.69-.06-1.05-.07,.04,.33,.04,.67,.12,.99,.03,.14,.21,.25,.33,.36,2.88,2.88,5.74,5.78,8.66,8.64,2.09,2.05,5.47,2.2,7.71,.3,1.38-1.18,2.68-2.48,3.87-3.85,1.15-1.33,1.66-2.97,1.18-4.73-.94-3.48-1.95-6.95-2.96-10.41-.19-.64-.23-1.73-1.24-1.42-1.08,.33-.52,1.3-.36,2.05,.22,1,.46,2,.64,3.01,.12,.67-.07,1.38-.78,1.52-.54,.1-1.16-.18-1.74-.32-.14-.04-.24-.22-.35-.34-2.93-2.93-5.86-5.87-8.8-8.79-.4-.4-.88-1.12-1.47-.56-.65,.63,.11,1.12,.52,1.54,2.05,2.08,4.1,4.14,6.18,6.18,.53,.52,.65,.97,.02,1.47-.18,.14-.35,.31-.49,.49-.55,.69-1.04,.73-1.69,.04-1.64-1.73-3.36-3.39-5.05-5.08-1.01-1.01-2.01-2.03-3.07-2.98-.2-.18-.69-.05-1.05-.06,.04,.33,.07,.66,.14,.98,.03,.11,.16,.21,.25,.3,2.42,2.41,4.83,4.83,7.26,7.22,1.41,1.39,1.41,1.35,.05,2.72-.54,.54-.92,.59-1.47,.01-1.7-1.77-3.44-3.49-5.18-5.22-.3-.3-.61-.64-.98-.83-.24-.12-.6,0-.91,.02,.02,.3-.07,.68,.09,.89,.39,.53,.87,1,1.34,1.46,1.78,1.72,3.58,3.43,5.38,5.15ZM10.63,26.47c.13,2.17,.65,3.57,1.79,4.7,2.9,2.9,5.8,5.82,8.73,8.69,.26,.25,.79,.21,1.2,.31-.08-.41-.03-.93-.27-1.21-.66-.78-1.44-1.46-2.15-2.2-.19-.2-.45-.63-.39-.71,.49-.6,1.01-1.22,1.65-1.66,.16-.11,.83,.34,1.15,.65,1.9,1.85,3.76,3.75,5.67,5.59,.21,.2,.66,.15,.99,.22,0-.38,0-.75-.03-1.13-.01-.11-.16-.2-.25-.3-1.68-1.69-3.36-3.38-5.06-5.06-1.32-1.3-1.3-1.26-.03-2.62,.59-.64,.97-.54,1.53,.02,2.51,2.55,5.05,5.08,7.59,7.61,.26,.26,.53,.51,.84,.68,.16,.09,.52,.08,.63-.04,.15-.16,.25-.49,.2-.7-.07-.26-.3-.51-.5-.71-2.42-2.45-4.85-4.89-7.27-7.34-1.23-1.24-1.2-1.21-.02-2.52,.6-.66,1.01-.63,1.6,0,1.7,1.76,3.46,3.48,5.19,5.21,.49,.49,.94,1.04,1.5,1.44,.24,.17,.71,.01,1.07,0-.06-.33-.06-.69-.2-.97-.15-.28-.44-.49-.68-.72-2.93-2.93-5.85-5.87-8.78-8.8-.56-.56-.87-1.17-.46-1.95,.4-.77,1.07-.82,1.8-.66,1.13,.25,2.26,.52,3.39,.79,.6,.14,1.17,.15,1.38-.56,.2-.7-.32-.92-.86-1.08-3.14-.94-6.28-1.87-9.42-2.8-2.23-.66-4.43-.8-6.28,.88-1.4,1.26-2.79,2.58-3.93,4.06-.73,.94-1.02,2.23-1.3,2.87Z"/></svg>