<?xml version="1.0" encoding="UTF-8"?><svg id="a" xmlns="http://www.w3.org/2000/svg" viewBox="0 0 91 92"><defs><style>.b{fill:#f9f8f7;}.c{fill:navy;}</style></defs><g><g><rect class="c" x="12.52" y="12.97" width="65.77" height="65.77"/><path class="c" d="M78.84,79.29H11.97V12.41H78.84V79.29Zm-65.77-1.1H77.74V13.52H13.07V78.19Z"/></g><path class="c" d="M91,92H-.45V0H91V92ZM4.53,86.98H86.01V5.01H4.53V86.98Z"/></g><g><path class="b" d="M41.28,41.29c-4.74-3.01-4.81-9.3-1.5-12.63,3.27-3.3,8.55-3.27,11.75,.06,3.32,3.46,3.05,9.62-1.57,12.57,.08,.14,.23,.15,.36,.21,4.11,2.08,6.32,5.4,6.49,10.01,.08,2.07,.03,4.14,.01,6.21-.03,2.99-2.23,5.15-5.22,5.16-3.98,0-7.96,0-11.94,0-3.01,0-5.2-2.18-5.23-5.21-.02-1.99-.04-3.98,0-5.97,.11-4.7,2.32-8.08,6.5-10.2,.11-.06,.23-.11,.34-.17,0,0,0-.03,.01-.04Z"/><path class="b" d="M63.17,42.29c2.42,1.13,4.13,2.87,5.11,5.3,.42,1.03,.66,2.1,.68,3.2,.03,1.69,.08,3.38,0,5.06-.12,2.89-2.22,4.92-5.11,4.99-1.45,.04-2.9,0-4.34,.01-.33,0-.38-.08-.25-.38,.42-.96,.57-1.98,.55-3.03-.03-2.27,.11-4.55-.07-6.82-.3-3.83-2-6.95-5-9.34-.33-.27-.36-.41-.1-.76,2.03-2.73,2.6-5.75,1.67-9.02-.11-.38-.02-.51,.32-.66,2.97-1.31,6.51-.24,8.26,2.51,1.75,2.77,1.2,6.46-1.28,8.57-.13,.11-.26,.22-.44,.38Z"/><path class="b" d="M27.16,42.29c-1.18-.9-2.02-1.99-2.43-3.36-.8-2.68-.21-5.05,1.85-6.91,2.07-1.88,4.5-2.2,7.11-1.17,.36,.14,.41,.3,.31,.67-.93,3.3-.35,6.32,1.7,9.06,.17,.23,.32,.37-.02,.63-3.12,2.43-4.87,5.63-5.12,9.58-.16,2.59-.12,5.18,0,7.78,.03,.69,.24,1.34,.51,1.98,.09,.21,.11,.32-.18,.32-1.58-.01-3.16,.06-4.72-.04-2.73-.17-4.68-2.14-4.81-4.88-.09-1.86-.14-3.73,.04-5.58,.34-3.59,2.18-6.2,5.36-7.87,.11-.06,.23-.11,.4-.2Z"/></g></svg>