<?xml version="1.0" encoding="UTF-8"?><svg id="a" xmlns="http://www.w3.org/2000/svg" viewBox="0 0 91 92"><defs><style>.b{fill:#01acf1;}</style></defs><path class="b" d="M83,56.24c-.19,1.84-.97,3.36-2.6,4.31-.73,.43-1.54,.87-2.35,.96-1.13,.13-1.31,.67-1.3,1.63,.03,4.71,.02,9.43,.01,14.14,0,3.52-2.63,5.57-6.08,4.76-1.34-.32-2.2-1.23-2.33-2.8-.17-2.12-.18-4.26-.25-6.39-.07-2.16-.11-4.33-.19-6.49-.05-1.38-.62-2.09-1.63-2.08-1.06,.01-1.63,.78-1.66,2.18-.09,3.82-.16,7.63-.28,11.45-.12,3.81-2.71,5.35-6.2,3.71-1.24-.58-2.01-1.55-2.22-2.9-.11-.68-.14-1.37-.14-2.05,0-9.74,0-19.47-.01-29.21,0-.42-.09-.83-.16-1.53-.46,.42-.73,.61-.93,.86-.98,1.24-1.97,2.48-2.9,3.75-.86,1.19-1.98,1.74-3.44,1.73-3.34-.03-6.67-.03-10.01-.08-1.85-.03-2.81-.83-3.11-2.66-.15-.94-.13-1.92-.05-2.87,.1-1.1,.98-1.46,1.92-1.52,2.05-.14,4.12-.3,6.17-.24,1.5,.04,2.52-.4,3.37-1.67,1.68-2.51,3.53-4.92,5.26-7.4,2.48-3.56,5.85-5.27,10.19-5.19,3.3,.06,6.6,.01,9.91,.01,5.48,0,9.32,2.92,10.84,8.21,.03,.09,.11,.17,.16,.26v17.14Z"/><path class="b" d="M8.03,37.36c0-8.05,0-16.1,0-24.15,0-2.93,1-4.07,3.92-4.09,11.04-.07,22.07-.09,33.11-.07,3.15,0,4.47,1.18,4.53,4.25,.12,6.19,.1,12.38-.04,18.56-.03,1.29-.65,2.68-1.34,3.82-1.09,1.82-2.46,3.47-3.74,5.18-.72,.97-1.67,1.4-2.93,1.43-1.71,.04-3.45,.12-5.12,.45-3.49,.69-4.87,2.97-4.12,6.45,.74,3.44,2.55,5.3,6.09,5.57,3.04,.24,6.11,.06,9.16,.02,2.16-.03,2.16-.06,2.16,2.06,0,1.38,0,2.75,0,4.13,0,3.44-1.15,4.61-4.56,4.61-9.29,0-18.57,0-27.86,0-1.86,0-3.72-.09-5.57,.02-2.42,.14-3.72-1.65-3.71-3.7,.04-5.61,.01-11.21,.01-16.82,0-2.58,0-5.16,0-7.74Zm20.88-12.91c3.75,0,7.49,0,11.24,0,1.34,0,2.11-.74,2.04-1.9-.06-1.05-.83-1.63-2.21-1.63-7.04,0-14.09,0-21.13,0-.55,0-1.1-.02-1.65,.02-1.04,.08-1.75,.87-1.7,1.84,.06,1.04,.81,1.68,2.07,1.68,3.78,.01,7.56,0,11.34,0Zm-13.42,22.35c.27,.64,.4,1.19,.7,1.63,.64,.94,1.33,1.84,2.06,2.71,.92,1.08,1.78,1.14,2.84,.2,1.52-1.34,3.01-2.72,4.48-4.11,1.22-1.16,2.4-2.36,3.58-3.57,.49-.5,.82-1.22,.29-1.75-.42-.41-1.19-.66-1.79-.63-.51,.02-1.04,.48-1.48,.84-1.89,1.6-3.76,3.22-5.61,4.87-.65,.57-1.11,.51-1.6-.18-.3-.41-.63-.89-1.07-1.08-.45-.2-1.1-.26-1.53-.08-.38,.16-.58,.74-.87,1.15Zm18.12-16.8c-2.2,0-4.39,0-6.59,0-1.23,0-2,.68-2.02,1.72-.02,1.02,.78,1.78,1.97,1.78,4.43,.01,8.85,.01,13.28,0,1.23,0,1.96-.71,1.95-1.78-.01-1.05-.77-1.71-2-1.72-2.2,0-4.39,0-6.59,0Zm-14.42,1.74c0-.99-.86-1.84-1.85-1.83-1,0-1.85,.85-1.85,1.84,0,.99,.84,1.82,1.86,1.82s1.84-.81,1.84-1.82Z"/><path class="b" d="M66.73,8.88c5.41-.03,9.79,4.34,9.77,9.75-.01,5.31-4.31,9.6-9.66,9.65-5.35,.05-9.7-4.25-9.77-9.64-.07-5.31,4.3-9.73,9.66-9.76Z"/></svg>