<svg xmlns="http://www.w3.org/2000/svg" viewBox="0 0 102 104">
  <path fill="#01acf1" d="M51,19.5c-5.2,0-9.4,4.2-9.4,9.4s4.2,9.4,9.4,9.4s9.4-4.2,9.4-9.4S56.2,19.5,51,19.5zM51,33.1c-2.3,0-4.2-1.9-4.2-4.2s1.9-4.2,4.2-4.2s4.2,1.9,4.2,4.2S53.3,33.1,51,33.1z"/>
  <path fill="#01acf1" d="M28.4,28.6c-4.2,0-7.6,3.4-7.6,7.6s3.4,7.6,7.6,7.6s7.6-3.4,7.6-7.6S32.6,28.6,28.4,28.6zM28.4,38.6c-1.3,0-2.4-1.1-2.4-2.4s1.1-2.4,2.4-2.4s2.4,1.1,2.4,2.4S29.7,38.6,28.4,38.6z"/>
  <path fill="#01acf1" d="M73.6,28.6c-4.2,0-7.6,3.4-7.6,7.6s3.4,7.6,7.6,7.6s7.6-3.4,7.6-7.6S77.8,28.6,73.6,28.6zM73.6,38.6c-1.3,0-2.4-1.1-2.4-2.4s1.1-2.4,2.4-2.4s2.4,1.1,2.4,2.4S74.9,38.6,73.6,38.6z"/>
  <path fill="#01acf1" d="M62.4,47.2c-2-2.5-5-4-8.2-4h-6.4c-3.2,0-6.2,1.5-8.2,4l-6.8,8.8c-0.9,1.2-0.7,2.9,0.5,3.8c1.2,0.9,2.9,0.7,3.8-0.5l4.6-5.9v29.7c0,1.5,1.2,2.7,2.7,2.7s2.7-1.2,2.7-2.7V64.8h3.8v18.3c0,1.5,1.2,2.7,2.7,2.7s2.7-1.2,2.7-2.7V53.4l4.6,5.9c0.9,1.2,2.6,1.4,3.8,0.5c1.2-0.9,1.4-2.6,0.5-3.8L62.4,47.2z"/>
  <path fill="#01acf1" d="M27.3,47.8c-1.6-2-4-3.2-6.6-3.2h-2c-2.6,0-5,1.2-6.6,3.2l-4.7,5.9c-0.9,1.2-0.7,2.9,0.5,3.8c1.2,0.9,2.9,0.7,3.8-0.5l2.8-3.5v20.5h2v-12h1.4v12h2V53.5l2.8,3.5c0.9,1.2,2.6,1.4,3.8,0.5s1.4-2.6,0.5-3.8L27.3,47.8z"/>
  <path fill="#01acf1" d="M90,44.6h-2c-2.6,0-5,1.2-6.6,3.2l-4.7,5.9c-0.9,1.2-0.7,2.9,0.5,3.8c1.2,0.9,2.9,0.7,3.8-0.5l2.8-3.5v20.5h2v-12h1.4v12h2V53.5l2.8,3.5c0.9,1.2,2.6,1.4,3.8,0.5s1.4-2.6,0.5-3.8l-4.7-5.9C94,45.8,91.6,44.6,90,44.6z"/>
</svg>
