<?xml version="1.0" encoding="UTF-8"?><svg id="a" xmlns="http://www.w3.org/2000/svg" viewBox="0 0 91 92"><defs><style>.b{fill:#fff;}.c{fill:navy;}</style></defs><g><g><rect class="c" x="12.52" y="12.97" width="65.77" height="65.77"/><path class="c" d="M78.84,79.29H11.97V12.41H78.84V79.29Zm-65.77-1.1H77.74V13.52H13.07V78.19Z"/></g><path class="c" d="M91,92H-.45V0H91V92ZM4.53,86.98H86.01V5.01H4.53V86.98Z"/></g><g><path class="b" d="M71.83,43.36c-.13,.13-.27,.24-.38,.39-1.08,1.39-2.15,2.79-3.25,4.22-7.57-5.82-15.11-11.63-22.69-17.46l-22.69,17.46-3.63-4.72,26.32-20.25,11.22,8.63v-3.62h7.65v.61c0,2.81,0,5.62,0,8.43,0,.35,.11,.56,.38,.77,2.37,1.81,4.73,3.63,7.09,5.45v.1Z"/><path class="b" d="M63.59,69h-13.89v-13.63h-7.74v13.61h-14.56v-.52c0-5.88,0-11.76,.01-17.64,0-.23,.11-.56,.28-.69,5.85-4.53,11.72-9.04,17.59-13.55,.07-.05,.14-.1,.23-.16,1.5,1.15,2.99,2.3,4.48,3.45,4.43,3.41,8.85,6.81,13.27,10.23,.17,.13,.33,.41,.33,.61,.02,5.98,.01,11.96,.01,17.94,0,.1-.01,.2-.02,.34Z"/></g></svg>
