<?xml version="1.0" encoding="UTF-8"?><svg id="a" xmlns="http://www.w3.org/2000/svg" viewBox="0 0 102 104"><defs><style>.b{fill:#01acf1;}</style></defs><path class="b" d="M38.78,71.7c0-2.58-.05-5.16,.01-7.73,.05-2.01-.35-3.69-2.7-3.92-1.82-.18-2.85,1.32-2.86,4.04-.02,5.24-.1,10.48,.04,15.72,.06,2.2-.7,2.46-2.54,1.8-3.36-1.2-5.58-3.99-5.71-7.78-.13-3.69-.15-7.39,0-11.08,.2-4.92,3.54-8.29,8.46-8.1,2.96,.12,4.52-.85,5.64-3.48,1.18-2.75,2.77-5.33,4.16-7.98,1.06-2.03,2.72-2.93,4.9-2.18,2.14,.73,3.04,2.39,2.63,4.68-.37,2.03-.63,4.08-1.1,6.08-.47,2.03-.14,3.02,2.28,2.84,2.82-.2,5.67-.09,8.5-.03,5.82,.12,9.27,4.33,8.28,10.13-.49,2.87-1.04,5.74-1.68,8.59-1.16,5.17-5.41,8.65-10.71,8.73-5.24,.07-10.48-.03-15.72,.05-1.41,.02-1.98-.33-1.92-1.84,.11-2.83,.03-5.67,.03-8.5Z"/><path class="b" d="M47.84,18.68l1.77,3.59c.18,.36,.52,.61,.91,.66l3.97,.58c1,.14,1.39,1.37,.67,2.07l-2.87,2.8c-.29,.28-.42,.68-.35,1.08l.68,3.95c.17,.99-.87,1.75-1.76,1.28l-3.55-1.86c-.35-.19-.78-.19-1.13,0l-3.55,1.86c-.89,.47-1.93-.29-1.76-1.28l.68-3.95c.07-.39-.06-.8-.35-1.08l-2.87-2.8c-.72-.7-.32-1.93,.67-2.07l3.97-.58c.4-.06,.74-.31,.91-.66l1.77-3.59c.45-.9,1.73-.9,2.18,0Z"/><path class="b" d="M25.66,26.74l1.77,3.59c.18,.36,.52,.61,.91,.66l3.97,.58c1,.14,1.39,1.37,.67,2.07l-2.87,2.8c-.29,.28-.42,.68-.35,1.08l.68,3.95c.17,.99-.87,1.75-1.76,1.28l-3.55-1.86c-.35-.19-.78-.19-1.13,0l-3.55,1.86c-.89,.47-1.93-.29-1.76-1.28l.68-3.95c.07-.39-.06-.8-.35-1.08l-2.87-2.8c-.72-.7-.32-1.93,.67-2.07l3.97-.58c.4-.06,.74-.31,.91-.66l1.77-3.59c.45-.9,1.73-.9,2.18,0Z"/><path class="b" d="M70.02,26.74l1.77,3.59c.18,.36,.52,.61,.91,.66l3.97,.58c1,.14,1.39,1.37,.67,2.07l-2.87,2.8c-.29,.28-.42,.68-.35,1.08l.68,3.95c.17,.99-.87,1.75-1.76,1.28l-3.55-1.86c-.35-.19-.78-.19-1.13,0l-3.55,1.86c-.89,.47-1.93-.29-1.76-1.28l.68-3.95c.07-.39-.06-.8-.35-1.08l-2.87-2.8c-.72-.7-.32-1.93,.67-2.07l3.97-.58c.4-.06,.74-.31,.91-.66l1.77-3.59c.45-.9,1.73-.9,2.18,0Z"/></svg>