<?xml version="1.0" encoding="UTF-8"?><svg id="a" xmlns="http://www.w3.org/2000/svg" viewBox="0 0 102 104"><defs><style>.b{fill:#01acf1;}</style></defs><path class="b" d="M77.97,69.19v-19.45h2.71v-10.83h-5.41v5.41h-5.41v-5.41h-5.41v5.41h-5.41v-5.41h-5.41v10.83h2.71v16.31c2.64,1.97,4.47,4.83,5.14,8.05h13.75c1.43-.09,2.67,1,2.76,2.43,0,.09,0,.19,0,.28v2.71h-16.24v5.41h21.65v-8.12c.04-3.45-2.14-6.53-5.41-7.62Zm-16.24-19.45h10.83v18.95h-10.83v-18.95Zm-11.45,19.25c-2.47-8.02-4.05-16.29-4.72-24.66h2.63v-5.41h-1l3.45-7.01c.9-2.54-.43-5.32-2.97-6.22-.52-.19-1.08-.28-1.63-.28h-5.94v-5.41h-5.41v5.41h-5.95c-2.69,0-4.88,2.17-4.88,4.86,0,.56,.09,1.11,.28,1.63l3.47,7.01h-1.06v5.41h2.63c-.66,8.37-2.24,16.64-4.71,24.66-3.55,.94-6.02,4.14-6.04,7.81v8.12H56.32v-8.12c-.01-3.67-2.49-6.87-6.03-7.81h0ZM29.63,30.82h15.54l-4,8.09h-7.52l-4.01-8.09Zm10.52,13.51c.58,8.25,2.06,16.42,4.4,24.36h-14.35c2.35-7.93,3.83-16.1,4.4-24.36h5.55Zm10.76,35.18H23.84v-2.71c0-1.49,1.21-2.71,2.71-2.71h21.65c1.49,0,2.71,1.21,2.71,2.71v2.71Z"/></svg>