<?xml version="1.0" encoding="UTF-8"?><svg id="a" xmlns="http://www.w3.org/2000/svg" viewBox="0 0 91 92"><defs><style>.b{fill:#01acf1;}</style></defs><path class="b" d="M43.05,37.73c-1,0-1.95,.04-2.91-.01-.94-.05-1.56-.67-1.65-1.53-.27-2.45-1.69-4.25-3.11-6.1-3-3.92-3.83-8.27-2.03-12.89,1.8-4.65,5.29-7.44,10.24-8.15,6.1-.88,11.41,1.99,13.88,7.6,2.13,4.83,1.22,9.38-1.84,13.58-.44,.6-.9,1.18-1.37,1.75-.92,1.13-1.36,2.46-1.57,3.87-.18,1.2-.81,1.83-2.03,1.89-.76,.04-1.53,0-2.29,0-.4,0-.54-.15-.53-.56,.1-3.01,.19-6.02,.26-9.03,.01-.48,.28-.48,.63-.57,.8-.19,1.64-.35,2.38-.7,1.01-.5,1.47-1.69,1.24-2.74-.22-1.02-1.16-1.81-2.25-1.91-1.32-.12-2.2,.32-2.65,1.48-.25,.64-.37,1.33-.48,2.01-.07,.41-.19,.62-.63,.56-.02,0-.05,0-.07,0-.67,0-1.5,.23-1.96-.09-.41-.28-.42-1.16-.59-1.78-.54-1.89-2.21-2.75-3.8-1.95-1.64,.83-1.75,3.34-.11,4.33,.69,.42,1.55,.56,2.35,.74,.38,.09,.62,.16,.63,.6,.1,3.11,.2,6.21,.3,9.32,0,.07-.03,.14-.06,.27Z"/><path class="b" d="M21.96,72.27c.86-1.06,1.68-2.05,2.49-3.05,.48-.59,.93-1.22,1.44-1.79,.16-.19,.51-.4,.7-.34,2.17,.58,4.38,1.06,6.14,2.6,1.83,1.59,2.78,3.63,2.91,6.02,.09,1.77,.09,3.54,.08,5.31-.02,1.96-.85,2.77-2.83,2.78-7.29,.02-14.59,.03-21.88,.03-2.04,0-2.78-.7-2.83-2.74-.04-1.91-.09-3.84,.08-5.73,.31-3.45,2.18-5.85,5.4-7.13,1.04-.42,2.13-.69,3.2-1.05,.5-.17,.84-.06,1.18,.37,1.13,1.45,2.3,2.87,3.46,4.3,.1,.13,.24,.22,.47,.43Z"/><path class="b" d="M69.13,72.25c.24-.26,.44-.46,.62-.67,1.1-1.36,2.18-2.72,3.3-4.07,.17-.21,.54-.47,.74-.42,2.45,.64,4.93,1.22,6.77,3.19,1.34,1.44,2.14,3.13,2.25,5.07,.12,2.03,.1,4.06,.05,6.09-.03,1.53-.87,2.29-2.4,2.35-.17,0-.33,0-.5,0-7.15,0-14.3,.02-21.45-.01-.73,0-1.53-.17-2.18-.49-.41-.21-.85-.85-.85-1.3-.03-2.57-.19-5.19,.19-7.71,.52-3.38,2.86-5.39,6.06-6.42,.8-.26,1.6-.47,2.4-.73,.48-.16,.8-.03,1.11,.37,1.08,1.37,2.18,2.72,3.28,4.08,.18,.22,.38,.41,.62,.66Z"/><path class="b" d="M22.41,46.88c1.2-.03,2.83,.36,4.27,1.37,1.81,1.28,2.59,3.13,2.76,5.28,.07,.93,.07,1.81,.56,2.73,.54,1,.2,2.19-.42,3.2-.6,1-1.22,1.99-1.76,3.02-1.4,2.68-4.07,4.33-6.66,3.95-2.58-.37-4.27-1.96-5.42-4.22-.45-.89-.96-1.76-1.51-2.59-.86-1.28-.94-2.78-.18-4.09,.15-.26,.17-.63,.18-.95,.03-1.88,.3-3.68,1.56-5.18,1.58-1.89,3.7-2.52,6.62-2.52Z"/><path class="b" d="M69.81,46.89c1.99,.02,4.33,.81,5.87,3.21,.89,1.38,1.06,2.94,1.05,4.54,0,.32,.05,.69,.21,.94,.86,1.31,.61,2.59-.07,3.85-.59,1.09-1.27,2.13-1.85,3.22-1.38,2.57-4.08,4.18-6.61,3.8-2.49-.37-4.16-1.88-5.31-4.05-.51-.97-1.09-1.9-1.64-2.85-.76-1.32-1.06-2.64-.12-4.02,.16-.23,.18-.58,.18-.88,0-1.57,.19-3.11,1.02-4.48,1.3-2.13,3.56-3.26,7.26-3.26Z"/><path class="b" d="M74.18,44.01c0,.65-.46,1.14-1.12,1.22-.73,.09-1.26-.26-1.42-.99-.54-2.39-1.36-4.67-2.52-6.83-2.02-3.78-4.84-6.84-8.37-9.26-.58-.4-.88-.87-.64-1.57,.32-.91,1.16-1.15,2.03-.58,3.6,2.39,6.5,5.45,8.69,9.18,1.49,2.53,2.55,5.22,3.2,8.09,.06,.26,.11,.51,.15,.74Z"/><path class="b" d="M31.29,27.05c-.4,.45-.66,.87-1.03,1.14-3.01,2.11-5.53,4.69-7.46,7.82-1.54,2.5-2.6,5.2-3.27,8.06-.21,.89-.8,1.3-1.59,1.11-.77-.18-1.08-.75-.88-1.66,1.65-7.37,5.6-13.19,11.82-17.47,.46-.31,.96-.57,1.45-.2,.35,.26,.57,.7,.96,1.2Z"/><path class="b" d="M45.54,78.35c-2.19-.32-4.37-.61-6.53-.96-.95-.16-1.42-.86-1.22-1.61,.19-.74,.88-1.09,1.77-.87,3.97,.96,7.94,.95,11.92,0,.91-.22,1.59,.12,1.78,.85,.21,.77-.24,1.46-1.19,1.62-2.16,.36-4.33,.65-6.53,.97Z"/><path class="b" d="M45.58,38.77c1.6,0,3.2,0,4.8,0,1,0,1.53,.45,1.55,1.28,.01,.84-.52,1.33-1.5,1.33-3.25,0-6.5,0-9.75,0-1.07,0-1.62-.58-1.49-1.54,.09-.67,.57-1.07,1.38-1.07,1.67-.01,3.35,0,5.02,0Z"/><path class="b" d="M45.51,44.95c-1.63,0-3.25,0-4.88,0-.94,0-1.46-.47-1.48-1.28-.01-.84,.53-1.34,1.5-1.34,3.25,0,6.51,0,9.76,0,.92,0,1.47,.49,1.48,1.29,.01,.84-.53,1.33-1.5,1.34-1.63,0-3.25,0-4.88,0Z"/><path class="b" d="M46.47,37.71h-1.92c-.12-3.32-.25-6.63-.37-10h2.59c-.1,3.35-.2,6.66-.29,10Z"/><path class="b" d="M41.96,45.98h7.05c-.19,1.11-1.33,1.95-2.76,2.09-2.17,.21-3.67-.48-4.29-2.09Z"/><path class="b" d="M48.26,26.11c.17-.65,.28-1.32,.54-1.93,.22-.53,.79-.77,1.31-.59,.34,.12,.71,.49,.84,.83,.19,.53-.04,1.08-.57,1.32-.59,.27-1.23,.41-1.85,.61l-.26-.24Z"/><path class="b" d="M42.49,26.35c-.66-.22-1.34-.38-1.96-.69-.48-.24-.69-.8-.47-1.29,.16-.34,.57-.75,.88-.77,.4-.02,1.01,.23,1.19,.55,.33,.59,.41,1.31,.59,1.98l-.23,.22Z"/></svg>