<svg xmlns="http://www.w3.org/2000/svg" viewBox="0 0 102 104">
  <path fill="#01acf1" d="M72.5,79.8H29.5c-1.5,0-2.7-1.2-2.7-2.7V26.9c0-1.5,1.2-2.7,2.7-2.7h43c1.5,0,2.7,1.2,2.7,2.7v50.2C75.2,78.6,74,79.8,72.5,79.8zM32.2,74.4h37.6V29.6H32.2V74.4z"/>
  <path fill="#01acf1" d="M63.8,38.4H38.2c-1.5,0-2.7-1.2-2.7-2.7s1.2-2.7,2.7-2.7h25.6c1.5,0,2.7,1.2,2.7,2.7S65.3,38.4,63.8,38.4z"/>
  <path fill="#01acf1" d="M63.8,48.6H38.2c-1.5,0-2.7-1.2-2.7-2.7s1.2-2.7,2.7-2.7h25.6c1.5,0,2.7,1.2,2.7,2.7S65.3,48.6,63.8,48.6z"/>
  <path fill="#01acf1" d="M47.8,58.8h-9.6c-1.5,0-2.7-1.2-2.7-2.7s1.2-2.7,2.7-2.7h9.6c1.5,0,2.7,1.2,2.7,2.7S49.3,58.8,47.8,58.8z"/>
  <path fill="#01acf1" d="M60.8,71c-1,0-2-0.4-2.7-1.1l-11.8-11.8c-1.5-1.5-1.5-3.9,0-5.4s3.9-1.5,5.4,0l11.8,11.8c1.5,1.5,1.5,3.9,0,5.4C62.8,70.6,61.8,71,60.8,71z"/>
  <path fill="#01acf1" d="M49,71c-1,0-2-0.4-2.7-1.1c-1.5-1.5-1.5-3.9,0-5.4l11.8-11.8c1.5-1.5,3.9-1.5,5.4,0s1.5,3.9,0,5.4L51.7,69.9C51,70.6,50,71,49,71z"/>
  <circle fill="#01acf1" cx="43.8" cy="64.8" r="3.5"/>
  <circle fill="#01acf1" cx="58.2" cy="64.8" r="3.5"/>
</svg>
