<?xml version="1.0" encoding="UTF-8"?><svg id="a" xmlns="http://www.w3.org/2000/svg" viewBox="0 0 91 92"><defs><style>.b{fill:#fff;}.c{fill:navy;}</style></defs><g><g><rect class="c" x="12.52" y="12.97" width="65.77" height="65.77"/><path class="c" d="M78.84,79.29H11.97V12.41H78.84V79.29Zm-65.77-1.1H77.74V13.52H13.07V78.19Z"/></g><path class="c" d="M91,92H-.45V0H91V92ZM4.53,86.98H86.01V5.01H4.53V86.98Z"/></g><g><path class="b" d="M25.73,64.94V24.78l.78-.78H63.8c.58,.3,.76,.78,.76,1.42-.01,12.93,0,25.86,0,38.79,0,.2,0,.41-.05,.61-.08,.41-.32,.72-.74,.82-.43,.11-.76-.05-1.02-.4-.21-.29-.44-.57-.72-.92-.12,.15-.2,.27-.29,.38-1,1.11-2,2.22-3,3.33-.61,.67-1.11,.68-1.72,.02-1.02-1.09-2.03-2.19-3.04-3.29-.11-.12-.19-.28-.29-.45-1.21,1.31-2.32,2.5-3.43,3.69-.58,.62-1.07,.62-1.67,0-1.07-1.1-2.15-2.2-3.22-3.31-.1-.1-.2-.19-.32-.3-1.06,1.21-2.08,2.39-3.12,3.56-.21,.23-.46,.43-.69,.65h-.61c-.23-.22-.48-.42-.69-.65-.83-.91-1.65-1.83-2.48-2.75-.24-.27-.48-.53-.77-.85-.12,.15-.2,.27-.3,.37-1.04,1.11-2.09,2.22-3.14,3.33-.62,.65-1.12,.64-1.72-.04-.42-.47-.83-.94-1.24-1.4-.67-.75-1.34-1.51-2.03-2.29-.28,.36-.52,.69-.78,1-.42,.49-1.11,.47-1.51-.03-.09-.11-.16-.23-.24-.35Zm36.73-3.19V26.31H27.82V61.73c.59-.21,.97,.04,1.33,.44,.97,1.12,1.96,2.22,2.95,3.32,.12,.14,.25,.26,.38,.41,1.19-1.26,2.34-2.49,3.49-3.71,.53-.57,1.08-.56,1.6,.01,.61,.67,1.2,1.34,1.8,2.01,.51,.57,1.02,1.14,1.55,1.73,.12-.13,.22-.24,.32-.35,.98-1.13,1.96-2.26,2.95-3.38,.52-.59,1.05-.61,1.6-.06,.4,.4,.78,.83,1.19,1.22,.83,.79,1.68,1.56,2.52,2.33,.03,.02,.14-.1,.25-.21,1.02-1.09,2.04-2.19,3.07-3.27,.54-.57,1.06-.56,1.6,0,.2,.21,.39,.43,.59,.64,.93,1.01,1.87,2.02,2.82,3.05,1.09-1.21,2.17-2.39,3.22-3.59,.38-.43,.77-.8,1.42-.58Z"/><path class="b" d="M58.4,40.2c-.98,0-1.91,0-2.83-.01-.11,0-.26-.16-.33-.28-.44-.78-.87-1.57-1.3-2.36-.07-.13-.16-.26-.27-.45-.53,.95-1.04,1.84-1.52,2.75-.14,.27-.31,.36-.61,.36-1.68-.01-3.37-.02-5.05,0-.35,0-.48-.12-.55-.44-.08-.37-.19-.73-.29-1.11-.91,0-1.79,0-2.68,.01-.1,0-.2,.14-.29,.23-.04,.04-.04,.11-.06,.16-.12,.37-.13,.87-.38,1.07-.23,.19-.72,.06-1.1,.07-.54,0-1.07,0-1.64,0,.04-.16,.07-.28,.11-.4,1-2.98,2.01-5.96,3.01-8.94,.1-.3,.24-.4,.55-.39,.68,.02,1.37,.03,2.05,0,.36-.01,.52,.09,.64,.45,.96,2.92,1.95,5.83,2.93,8.74,.04,.13,.09,.26,.16,.46,.11-.16,.19-.26,.25-.36,.85-1.43,1.7-2.87,2.56-4.3,.14-.23,.14-.39,0-.62-.85-1.41-1.69-2.84-2.58-4.35,.29,0,.51,0,.74,0,.62,0,1.25,.01,1.87,0,.27,0,.42,.08,.54,.32,.37,.75,.77,1.5,1.15,2.24,.07,.13,.14,.25,.23,.41,.47-.92,.91-1.78,1.34-2.65,.12-.24,.26-.34,.53-.33,.82,.02,1.65,0,2.55,0-.1,.19-.17,.32-.24,.45-.75,1.31-1.5,2.62-2.26,3.92-.14,.24-.15,.42,0,.67,.85,1.4,1.68,2.82,2.51,4.23,.08,.13,.15,.27,.25,.46Zm-13.26-3.84l-.89-3.26h-.1l-.89,3.26h1.89Z"/><path class="b" d="M45.98,45.52c-4.12,0-8.24,0-12.36,0-.13,0-.26,0-.39,0-.4-.04-.73-.36-.77-.76-.05-.39,.21-.79,.6-.9,.18-.05,.37-.05,.56-.05,8.24,0,16.48,0,24.73,0,.2,0,.41,0,.6,.06,.4,.11,.63,.51,.57,.91-.06,.44-.35,.71-.78,.74-.13,0-.26,0-.39,0-4.12,0-8.24,0-12.36,0Z"/><path class="b" d="M45.98,49.33c4.17,0,8.33,0,12.5,0,.59,0,.94,.28,.98,.76,.04,.49-.27,.88-.76,.93-.14,.02-.29,0-.43,0-8.2,0-16.4,0-24.6,0-.19,0-.38,0-.56-.03-.39-.08-.67-.47-.65-.87,.02-.41,.33-.75,.73-.8,.14-.02,.29-.01,.43-.01,4.12,0,8.24,0,12.37,0Z"/><path class="b" d="M39.91,30.5v2.45h-2.73v7.23h-2.72v-7.19h-2.7v-2.48h8.15Z"/><path class="b" d="M44.02,54.85c3.37,0,6.74,0,10.1,0,.16,0,.32,0,.48,.03,.39,.09,.67,.48,.65,.87-.02,.4-.33,.74-.73,.81-.1,.02-.2,0-.3,0-6.82,0-13.65,0-20.47,0-.06,0-.12,0-.17,0-.53-.02-.89-.38-.87-.88,.01-.48,.36-.83,.88-.83,1.19,0,2.38,0,3.57,0,2.29,0,4.59,0,6.88,0Z"/></g></svg>