<?xml version="1.0" encoding="UTF-8"?><svg id="a" xmlns="http://www.w3.org/2000/svg" viewBox="0 0 91 92"><defs><style>.b{fill:#fff;}.c{fill:navy;}</style></defs><g><g><rect class="c" x="12.52" y="12.97" width="65.77" height="65.77"/><path class="c" d="M78.84,79.29H11.97V12.41H78.84V79.29Zm-65.77-1.1H77.74V13.52H13.07V78.19Z"/></g><path class="c" d="M91,92H-.45V0H91V92ZM4.53,86.98H86.01V5.01H4.53V86.98Z"/></g><path class="b" d="M50.28,66.87c-1.31-2.22-2.58-4.39-3.86-6.55-.04-.06-.08-.13-.27-.14,0,1.2-.06,2.41,.01,3.61,.11,1.83-.59,3.28-1.96,4.42-2.05,1.69-4.4,2.7-7.08,2.54-2.79-.17-4.82-1.98-5.55-4.68-.05-.2-.11-.39-.17-.63-2.68-.38-5.19-1.18-6.61-3.74-1.38-2.49-1.06-5.11-.34-7.75-.38-.26-.76-.5-1.13-.77-2.35-1.71-3.19-4.05-2.61-6.84,.24-1.15,.74-2.26,1.24-3.34,.24-.52,.27-.95,.2-1.5-.14-1.17-.28-2.38-.15-3.55,.21-1.95,1.41-3.29,3.17-4.08,.49-.22,.58-.48,.63-.96,.1-1.06,.18-2.14,.47-3.15,.88-3.07,3.31-4.86,6.49-4.91,.3,0,.61,0,.96,0,.07-.19,.14-.37,.2-.56,.85-2.9,3.72-4.93,6.5-4.6,3.33,.39,5.65,2.87,5.72,6.17,.04,2.13,0,4.27,.17,6.47l4.54-7.86c-1.68-1.75-1.95-4.2-.27-6.07,1.38-1.54,3.6-1.82,5.36-.73,1.69,1.05,2.39,3.16,1.68,5.08-.74,1.99-2.65,2.97-5.17,2.57-.87,1.49-1.75,2.99-2.62,4.51-.99,1.72-1.91,3.48-3,5.14-.71,1.08-.7,2.18-.62,3.45,.93,0,1.84,0,2.74,0,1.22,0,2.58,.32,3.63-.11,1.05-.43,1.79-1.61,2.66-2.46,.74-.73,1.48-1.47,2.24-2.22-.74-1.33-.92-2.67-.31-4.05,.94-2.14,3.44-3.09,5.58-2.14,2.07,.92,3.05,3.37,2.18,5.45-.91,2.18-3.36,3.23-5.5,2.29-.54-.24-.83-.18-1.23,.23-1.38,1.43-2.77,2.85-4.22,4.2-.35,.33-.92,.56-1.4,.58-1.83,.07-3.67,.03-5.5,.03-.27,0-.55,0-.86,0v4.33c.25,.02,.5,.04,.74,.04,4.84,0,9.67,0,14.51,.01,.53,0,.78-.14,1-.66,.79-1.86,2.8-2.84,4.77-2.41,1.93,.42,3.32,2.23,3.27,4.25-.06,2.08-1.51,3.7-3.66,4.06-1.83,.31-3.8-.87-4.49-2.69-.09-.23-.16-.47-.25-.73h-15.88v4.65c.24,.01,.51,.04,.77,.04,1.88,0,3.77-.03,5.65,.03,.43,.01,.95,.22,1.26,.52,1.46,1.38,2.86,2.83,4.28,4.25,.18,.18,.36,.35,.53,.5,2.26-.98,4.04-.76,5.38,.66,1.45,1.53,1.57,3.88,.28,5.52-1.32,1.68-3.64,2.1-5.49,1.01-1.79-1.06-2.55-3.32-1.7-5.25,.22-.51,.18-.78-.21-1.16-1.32-1.27-2.6-2.59-3.9-3.87-.19-.18-.46-.4-.69-.4-2.03-.03-4.07-.02-6.23-.02,.15,1.59-.32,3.11,.64,4.61,1.64,2.57,3.13,5.24,4.66,7.88,.24,.42,.44,.62,1,.5,1.94-.41,3.94,.75,4.66,2.61,.72,1.87,.02,4.02-1.67,5.09-1.72,1.09-3.98,.8-5.36-.7-1.37-1.48-1.5-3.71-.31-5.34,.15-.2,.31-.4,.51-.65Zm-19.16-3.41c.43-1.38,.69-2.72,1.26-3.91,1.15-2.41,4.18-4,6.77-3.67,.32,.04,.74,.45,.84,.77,.16,.51-.22,.86-.73,.96-.27,.06-.56,.03-.84,.05-2.52,.14-4.43,1.61-4.99,4.07-.25,1.09-.28,2.27-.2,3.4,.16,2.18,2.09,3.84,4.29,3.86,1.72,.01,3.22-.66,4.65-1.52,1.54-.92,2.25-2.2,2.23-4.1-.09-6.36-.03-12.72-.03-19.08,0-5.9,0-11.81,0-17.71,0-.43-.02-.87-.07-1.29-.23-1.68-1.15-2.88-2.7-3.52-1.52-.63-2.99-.43-4.33,.54-1.98,1.43-2.15,3.92-1.33,6.07,.39,1.02,1.18,1.68,2.23,1.9,.73,.16,1.51,.17,2.26,.18,.62,0,.99,.29,1.05,.87,.05,.53-.3,.88-.82,.93-2.72,.29-5.65-.62-6.62-3.86-.16-.55-.25-1.13-.38-1.69-2.46-.42-4.74,.7-5.51,3.02-.45,1.34-.48,2.83-.62,4.26-.06,.61-.18,1.06-.82,1.19-2.74,.56-3.64,3.19-2.85,5.8,1.1-.37,2.19-.81,3.32-1.08,1.97-.48,3.92-.42,5.62,.84,2.43,1.81,3.19,4.43,3.36,7.29,.04,.67-.85,1.1-1.33,.66-.26-.24-.36-.69-.46-1.07-.28-1.02-.43-2.1-.81-3.08-.62-1.6-1.74-2.78-3.53-3.02-2.2-.3-4.14,.54-6.03,1.53-.06,.03-.12,.09-.16,.16-1.05,1.65-1.74,3.4-1.47,5.4,.25,1.85,1.5,2.93,3.04,3.76,1.14,.61,1.1,.7,.81,1.98-.29,1.28-.54,2.6-.54,3.9,0,3.19,2.54,5.12,5.43,5.21Zm37.6-17.83c0-1.31-1.12-2.44-2.43-2.44-1.32,0-2.44,1.12-2.44,2.43,0,1.32,1.1,2.43,2.43,2.43,1.34,0,2.43-1.09,2.44-2.42Zm-10.09,14.31c0,1.33,1.09,2.44,2.41,2.44,1.33,0,2.42-1.08,2.42-2.42,0-1.35-1.07-2.43-2.4-2.44-1.33,0-2.42,1.09-2.43,2.42Zm-2.55-38.72c0-1.36-1.06-2.43-2.4-2.43-1.34,0-2.42,1.08-2.43,2.42,0,1.34,1.07,2.41,2.42,2.41,1.37,0,2.41-1.04,2.41-2.41Zm-2.9,46.36c-1.33,0-2.44,1.08-2.44,2.4,0,1.31,1.11,2.43,2.43,2.43,1.33,0,2.43-1.09,2.43-2.42,0-1.35-1.06-2.41-2.42-2.41Zm10.23-36.35c0-1.34-1.1-2.42-2.43-2.41-1.32,.01-2.42,1.14-2.4,2.46,.02,1.34,1.12,2.42,2.44,2.41,1.34-.02,2.39-1.1,2.39-2.45Z"/></svg>