<svg xmlns="http://www.w3.org/2000/svg" viewBox="0 0 102 104">
  <path fill="#01acf1" d="M74.8,43.2h-5.2v-5.8c0-1.5-1.2-2.7-2.7-2.7H61v-5.2c0-1.5-1.2-2.7-2.7-2.7h-14.6c-1.5,0-2.7,1.2-2.7,2.7v5.2h-5.8c-1.5,0-2.7,1.2-2.7,2.7v5.8h-5.2c-1.5,0-2.7,1.2-2.7,2.7v14.6c0,1.5,1.2,2.7,2.7,2.7h5.2v5.8c0,1.5,1.2,2.7,2.7,2.7h5.8v5.2c0,1.5,1.2,2.7,2.7,2.7h14.6c1.5,0,2.7-1.2,2.7-2.7v-5.2h5.8c1.5,0,2.7-1.2,2.7-2.7v-5.8h5.2c1.5,0,2.7-1.2,2.7-2.7v-14.6C77.5,44.4,76.3,43.2,74.8,43.2zM72.2,57.8h-5.2c-1.5,0-2.7,1.2-2.7,2.7v5.8H37.8v-5.8c0-1.5-1.2-2.7-2.7-2.7h-5.2v-9.2h5.2c1.5,0,2.7-1.2,2.7-2.7v-5.8h26.5v5.8c0,1.5,1.2,2.7,2.7,2.7h5.2V57.8z"/>
  <path fill="#01acf1" d="M44.5,34.7v-7.8c0-1.5-1.2-2.7-2.7-2.7s-2.7,1.2-2.7,2.7v7.8H44.5z"/>
  <path fill="#01acf1" d="M63.2,34.7v-7.8c0-1.5-1.2-2.7-2.7-2.7s-2.7,1.2-2.7,2.7v7.8H63.2z"/>
  <path fill="#01acf1" d="M44.5,76.9v7.8c0,1.5,1.2,2.7,2.7,2.7s2.7-1.2,2.7-2.7v-7.8H44.5z"/>
  <path fill="#01acf1" d="M63.2,76.9v7.8c0,1.5,1.2,2.7,2.7,2.7s2.7-1.2,2.7-2.7v-7.8H63.2z"/>
  <path fill="#01acf1" d="M27.4,60.5h-7.8c-1.5,0-2.7,1.2-2.7,2.7s1.2,2.7,2.7,2.7h7.8V60.5z"/>
  <path fill="#01acf1" d="M27.4,41.8h-7.8c-1.5,0-2.7,1.2-2.7,2.7s1.2,2.7,2.7,2.7h7.8V41.8z"/>
  <path fill="#01acf1" d="M82.7,60.5h-7.8v5.4h7.8c1.5,0,2.7-1.2,2.7-2.7S84.2,60.5,82.7,60.5z"/>
  <path fill="#01acf1" d="M82.7,41.8h-7.8v5.4h7.8c1.5,0,2.7-1.2,2.7-2.7S84.2,41.8,82.7,41.8z"/>
  <rect fill="#01acf1" x="43.8" y="43.6" width="14.5" height="14.5" rx="2.2"/>
</svg>
